<svg xmlns="http://www.w3.org/2000/svg" width="61" height="24" viewBox="0 0 61 24" fill="none">
<path d="M37.2353 8.73939C37.4531 8.73939 37.6308 8.70787 37.7683 8.64482C37.9116 8.57605 38.0205 8.48721 38.095 8.37832C38.1753 8.26369 38.2297 8.13474 38.2584 7.99146C38.287 7.84244 38.3013 7.69056 38.3013 7.53582V7.38107H39.4361V7.53582C39.4361 8.25223 39.247 8.8053 38.8687 9.19503C38.4962 9.57902 37.9517 9.77102 37.2353 9.77102C36.5476 9.77102 36.0031 9.56183 35.6019 9.14345C35.2007 8.72506 35.0001 8.11468 35.0001 7.3123V5.97118C35.0001 5.58718 35.0517 5.2433 35.1549 4.93954C35.258 4.63005 35.407 4.37214 35.6019 4.16582C35.7968 3.95376 36.0318 3.79328 36.3069 3.68439C36.582 3.56976 36.8914 3.51245 37.2353 3.51245C37.5907 3.51245 37.9059 3.56403 38.181 3.6672C38.4561 3.77036 38.6853 3.91937 38.8687 4.11424C39.0579 4.3091 39.1983 4.54408 39.29 4.81919C39.3874 5.09429 39.4361 5.40378 39.4361 5.74766V5.9024H38.3013V5.74766C38.3013 5.60437 38.2842 5.46109 38.2498 5.31781C38.2154 5.17453 38.1581 5.04557 38.0778 4.93095C37.9976 4.81632 37.8887 4.72462 37.7511 4.65584C37.6136 4.58134 37.4417 4.54408 37.2353 4.54408C37.0462 4.54408 36.8829 4.58134 36.7453 4.65584C36.6077 4.72462 36.4931 4.82205 36.4014 4.94814C36.3097 5.0685 36.2409 5.21178 36.1951 5.37799C36.155 5.53846 36.1349 5.70754 36.1349 5.88521V7.39827C36.1349 7.59313 36.155 7.77367 36.1951 7.93987C36.2352 8.10035 36.2983 8.24077 36.3842 8.36112C36.4702 8.48148 36.582 8.57605 36.7195 8.64482C36.8628 8.70787 37.0347 8.73939 37.2353 8.73939Z" fill="white"/>
<path d="M44.5196 9.65067H43.3848V7.84531C43.3848 7.70776 43.3475 7.596 43.273 7.51003C43.2042 7.42406 43.0867 7.38107 42.9205 7.38107H41.6138V9.65067H40.479V3.63281H42.783C43.0925 3.63281 43.3647 3.67579 43.5997 3.76176C43.8347 3.84773 44.0295 3.96809 44.1843 4.12283C44.3447 4.27185 44.4651 4.44665 44.5453 4.64725C44.6313 4.84784 44.6743 5.06277 44.6743 5.29202V5.49834C44.6743 5.74479 44.6084 5.97691 44.4766 6.1947C44.3447 6.40675 44.1413 6.5701 43.8662 6.68472V6.83947C44.0668 6.86239 44.2244 6.93976 44.339 7.07158C44.4594 7.2034 44.5196 7.36961 44.5196 7.57021V9.65067ZM41.6138 6.29786H42.697C42.9721 6.29786 43.1813 6.23482 43.3246 6.10873C43.4679 5.97691 43.5395 5.79351 43.5395 5.55852V5.45536C43.5395 5.25476 43.4679 5.08283 43.3246 4.93954C43.1813 4.79053 42.9721 4.71602 42.697 4.71602H41.6138V6.29786Z" fill="white"/>
<path d="M48.7691 8.36112H46.723L46.4307 9.65067H45.2443L46.68 3.63281H48.812L50.2477 9.65067H49.0614L48.7691 8.36112ZM46.9637 7.27791H48.5197L47.8234 4.20021H47.6686L46.9637 7.27791Z" fill="white"/>
<path d="M51.1358 3.63281H54.9873V4.71602H52.2706V6.09153H54.9357V7.17475H52.2706V9.65067H51.1358V3.63281Z" fill="white"/>
<path d="M56.1075 3.63281H60.4403V4.71602H58.8413V9.65067H57.7065V4.71602H56.1075V3.63281Z" fill="white"/>
<path d="M35.0519 14.8088H39.3847V15.892H37.7857V20.8267H36.6509V15.892H35.0519V14.8088Z" fill="white"/>
<path d="M44.5197 20.8267H43.3849V19.0213C43.3849 18.8838 43.3477 18.772 43.2732 18.6861C43.2044 18.6001 43.0869 18.5571 42.9207 18.5571H41.614V20.8267H40.4792V14.8088H42.7831C43.0926 14.8088 43.3649 14.8518 43.5999 14.9378C43.8348 15.0238 44.0297 15.1441 44.1844 15.2989C44.3449 15.4479 44.4653 15.6227 44.5455 15.8233C44.6315 16.0239 44.6745 16.2388 44.6745 16.468V16.6744C44.6745 16.9208 44.6086 17.1529 44.4767 17.3707C44.3449 17.5828 44.1415 17.7461 43.8664 17.8607V18.0155C44.067 18.0384 44.2246 18.1158 44.3392 18.2476C44.4596 18.3794 44.5197 18.5456 44.5197 18.7462V20.8267ZM41.614 17.4739H42.6972C42.9723 17.4739 43.1815 17.4108 43.3248 17.2848C43.468 17.1529 43.5397 16.9695 43.5397 16.7345V16.6314C43.5397 16.4308 43.468 16.2589 43.3248 16.1156C43.1815 15.9666 42.9723 15.892 42.6972 15.892H41.614V17.4739Z" fill="white"/>
<path d="M49.9126 14.8088V18.7462C49.9126 19.434 49.7292 19.9727 49.3624 20.3625C49.0014 20.7522 48.4626 20.947 47.7462 20.947C47.0298 20.947 46.4882 20.7522 46.1214 20.3625C45.7603 19.9727 45.5798 19.434 45.5798 18.7462V14.8088H46.7146V18.7462C46.7146 19.1016 46.7977 19.3795 46.9639 19.5801C47.1301 19.7807 47.3909 19.881 47.7462 19.881C48.1015 19.881 48.3623 19.7807 48.5285 19.5801C48.6947 19.3795 48.7778 19.1016 48.7778 18.7462V14.8088H49.9126Z" fill="white"/>
<path d="M54.0418 16.6486C54.0418 16.4079 53.9472 16.1987 53.7581 16.021C53.5747 15.8433 53.3139 15.7545 52.9758 15.7545C52.6892 15.7545 52.4628 15.8147 52.2966 15.935C52.1304 16.0497 52.0473 16.2073 52.0473 16.4079C52.0473 16.511 52.0673 16.6056 52.1075 16.6916C52.1476 16.7718 52.2164 16.8463 52.3138 16.9151C52.417 16.9781 52.5488 17.0354 52.7093 17.087C52.8755 17.1386 53.0847 17.1873 53.3368 17.2332C53.9673 17.3478 54.4487 17.5398 54.7811 17.8092C55.1135 18.0785 55.2797 18.4769 55.2797 19.0041V19.1073C55.2797 19.3881 55.2282 19.6432 55.125 19.8724C55.0276 20.096 54.8843 20.2879 54.6951 20.4484C54.506 20.6089 54.2768 20.7321 54.0074 20.8181C53.738 20.9041 53.4343 20.947 53.0961 20.947C52.7007 20.947 52.351 20.8926 52.0473 20.7837C51.7493 20.6691 51.4999 20.5143 51.2994 20.3195C51.0988 20.1189 50.9469 19.8868 50.8437 19.6231C50.7406 19.3537 50.689 19.0615 50.689 18.7462V18.4883H51.8238V18.6946C51.8238 19.0557 51.9269 19.3452 52.1333 19.5629C52.3453 19.775 52.672 19.881 53.1133 19.881C53.4572 19.881 53.7122 19.8065 53.8784 19.6575C54.0446 19.5085 54.1277 19.3308 54.1277 19.1245C54.1277 19.0271 54.1106 18.9354 54.0762 18.8494C54.0418 18.7577 53.9816 18.6775 53.8956 18.6087C53.8097 18.5342 53.6922 18.4683 53.5432 18.411C53.3941 18.3536 53.205 18.3049 52.9758 18.2648C52.672 18.2132 52.394 18.1473 52.1419 18.0671C51.8897 17.9811 51.669 17.8693 51.4799 17.7318C51.2965 17.5942 51.1532 17.4223 51.05 17.216C50.9469 17.0096 50.8953 16.7575 50.8953 16.4594V16.4079C50.8953 16.1614 50.944 15.935 51.0414 15.7287C51.1446 15.5166 51.285 15.3332 51.4627 15.1785C51.6461 15.0238 51.8639 14.9034 52.1161 14.8174C52.374 14.7315 52.6605 14.6885 52.9758 14.6885C53.3311 14.6885 53.6463 14.7401 53.9214 14.8432C54.1965 14.9407 54.4258 15.0753 54.6092 15.2473C54.7983 15.4192 54.9387 15.6169 55.0304 15.8405C55.1279 16.064 55.1766 16.299 55.1766 16.5454V16.8549H54.0418V16.6486Z" fill="white"/>
<path d="M56.1077 14.8088H60.4405V15.892H58.8415V20.8267H57.7067V15.892H56.1077V14.8088Z" fill="white"/>
<path d="M19.7025 19.3684C16.0931 20.0175 15.0007 21.2774 13.547 24C15.7212 17.547 17.1617 14.9967 23.9318 11.8351C24.0739 12.7959 23.1755 13.7127 21.1681 15.5041C23.0612 15.2172 25.1741 13.4255 26.1651 9.25427C26.3188 16.4541 24.5522 18.2427 19.7025 19.3684Z" fill="#18D458"/>
<path d="M6.48604 19.3684C10.1035 20.0175 11.1983 21.2774 12.6552 24C10.4809 18.2021 9.03251 14.9967 2.2474 11.8351C2.10498 12.7959 3.00535 13.7127 5.01721 15.5041C3.11994 15.2172 1.00239 13.4255 0.00917912 9.25427C-0.144876 16.4541 1.62566 18.2427 6.48604 19.3684Z" fill="#18D458"/>
<path fill-rule="evenodd" clip-rule="evenodd" d="M23.6252 11.0664C23.6334 10.8955 23.6376 10.7235 23.6376 10.5506C23.6376 4.72366 18.9139 0 13.087 0C7.26004 0 2.53638 4.72366 2.53638 10.5506C2.53638 10.7234 2.54053 10.8952 2.54875 11.066C2.8177 5.47863 7.43295 1.03117 13.087 1.03117C18.7411 1.03117 23.3564 5.47882 23.6252 11.0664Z" fill="#18D458"/>
<path d="M19.2708 10.4585C19.2708 10.4585 17.7333 9.72728 15.8366 9.72728C15.7349 9.72728 15.6343 9.7295 15.5349 9.73349C15.6978 9.6247 15.8538 9.50906 16.0022 9.38702C17.3433 8.28245 17.7737 6.84601 17.7737 6.84601C17.7737 6.84601 16.0297 7.20049 14.6886 8.30506C14.4495 8.50198 14.2395 8.70945 14.0556 8.91743C14.1552 8.45094 14.2207 7.94155 14.2207 7.40792C14.2206 5.17265 13.0733 3.3606 13.0733 3.3606C13.0733 3.3606 11.926 5.17265 11.926 7.40794C11.926 7.94157 11.9915 8.45098 12.091 8.91745C11.9071 8.70947 11.6971 8.502 11.458 8.30508C10.1169 7.20049 8.37293 6.84601 8.37293 6.84601C8.37293 6.84601 8.80331 8.28245 10.1444 9.38702C10.2929 9.50905 10.4489 9.62469 10.6118 9.73349C10.5113 9.72941 10.4107 9.72734 10.31 9.72728C8.41336 9.72726 6.87585 10.4585 6.87585 10.4585C6.87585 10.4585 8.41336 11.1896 10.31 11.1896C10.7311 11.1896 11.1343 11.1535 11.507 11.0974C11.4922 11.1091 11.4775 11.121 11.4629 11.133C10.5723 11.8665 10.3908 12.9062 10.3908 12.9062C10.3908 12.9062 11.6531 12.7567 12.5436 12.0232C12.5867 11.9875 12.6286 11.9508 12.6691 11.9131L13.037 15.7927L13.4775 11.9131C13.5178 11.9504 13.5593 11.9872 13.603 12.0232C14.4936 12.7567 15.7559 12.9062 15.7559 12.9062C15.7559 12.9062 15.5743 11.8665 14.6838 11.1331C14.6692 11.121 14.6544 11.1091 14.6396 11.0974C15.0124 11.1535 15.4156 11.1896 15.8366 11.1896C17.7333 11.1896 19.2708 10.4585 19.2708 10.4585Z" fill="#18D458"/>
</svg>