<svg xmlns="http://www.w3.org/2000/svg" width="488" height="448" viewBox="0 0 488 448" fill="none">
<path d="M367.339 361.11C300.044 373.212 279.676 396.7 252.574 447.462C293.111 327.151 319.966 279.601 446.191 220.657C448.841 238.57 432.091 255.663 394.664 289.063C429.959 283.713 469.352 250.308 487.829 172.539C490.695 306.775 457.758 340.121 367.339 361.11Z" fill="url(#paint0_linear_1_3396)"/>
<path d="M120.927 361.11C188.371 373.212 208.783 396.7 235.946 447.462C195.409 339.364 168.405 279.601 41.9011 220.657C39.2457 238.57 56.0324 255.663 93.5421 289.063C58.1689 283.713 18.6888 250.308 0.171066 172.539C-2.70119 306.775 30.3092 340.121 120.927 361.11Z" fill="url(#paint1_linear_1_3396)"/>
<path d="M359.289 194.991C359.289 194.991 330.624 181.358 295.262 181.358C293.366 181.358 291.49 181.4 289.636 181.474C292.674 179.446 295.582 177.29 298.35 175.015C323.354 154.421 331.378 127.639 331.378 127.639C331.378 127.639 298.863 134.248 273.858 154.842C269.4 158.514 265.485 162.382 262.057 166.259C263.913 157.562 265.134 148.065 265.134 138.116C265.133 96.4407 243.742 62.6562 243.742 62.6562C243.742 62.6562 222.351 96.4407 222.351 138.116C222.351 148.065 223.572 157.563 225.428 166.26C221.999 162.382 218.084 158.514 213.627 154.843C188.622 134.248 156.107 127.639 156.107 127.639C156.107 127.639 164.131 154.421 189.135 175.015C191.903 177.29 194.811 179.446 197.849 181.474C195.975 181.398 194.099 181.36 192.223 181.358C156.861 181.358 128.195 194.991 128.195 194.991C128.195 194.991 156.861 208.623 192.222 208.623C200.073 208.623 207.59 207.949 214.54 206.903C214.264 207.122 213.989 207.343 213.717 207.568C197.113 221.243 193.728 240.627 193.728 240.627C193.728 240.627 217.263 237.839 233.867 224.164C234.67 223.498 235.451 222.813 236.207 222.111L243.065 294.444L251.278 222.111C252.029 222.806 252.804 223.494 253.618 224.164C270.222 237.84 293.757 240.628 293.757 240.628C293.757 240.628 290.372 221.243 273.768 207.568C273.495 207.344 273.221 207.122 272.944 206.903C279.894 207.949 287.412 208.623 295.263 208.623C330.624 208.623 359.289 194.991 359.289 194.991Z" fill="url(#paint2_linear_1_3396)"/>
<path d="M440.474 206.324C440.628 203.138 440.705 199.932 440.705 196.708C440.705 88.0693 352.636 0 243.997 0C135.358 0 47.2888 88.0693 47.2888 196.708C47.2888 199.93 47.3663 203.134 47.5194 206.318C52.5337 102.145 138.582 19.2252 243.997 19.2252C349.414 19.2252 435.463 102.148 440.474 206.324Z" fill="url(#paint3_linear_1_3396)"/>
<defs>
<linearGradient id="paint0_linear_1_3396" x1="370.287" y1="11.1714" x2="370.287" y2="413.3" gradientUnits="userSpaceOnUse">
<stop stop-color="#18D458"/>
<stop offset="1" stop-color="#0C6E2E" stop-opacity="0"/>
</linearGradient>
<linearGradient id="paint1_linear_1_3396" x1="117.973" y1="11.1714" x2="117.973" y2="413.3" gradientUnits="userSpaceOnUse">
<stop stop-color="#18D458"/>
<stop offset="1" stop-color="#0C6E2E" stop-opacity="0"/>
</linearGradient>
<linearGradient id="paint2_linear_1_3396" x1="243.742" y1="-73.3919" x2="243.742" y2="265.642" gradientUnits="userSpaceOnUse">
<stop stop-color="#18D458"/>
<stop offset="1" stop-color="#0C6E2E" stop-opacity="0"/>
</linearGradient>
<linearGradient id="paint3_linear_1_3396" x1="243.997" y1="-121.102" x2="243.997" y2="180.686" gradientUnits="userSpaceOnUse">
<stop stop-color="#18D458"/>
<stop offset="1" stop-color="#0C6E2E" stop-opacity="0"/>
</linearGradient>
</defs>
</svg>