<svg xmlns="http://www.w3.org/2000/svg" width="1119" height="1026" viewBox="0 0 1119 1026" fill="none">
<path d="M842.186 827.922C687.898 855.668 641.203 909.52 579.064 1025.9C672.003 750.064 733.575 641.048 1022.97 505.906C1029.05 546.976 990.643 586.164 904.834 662.74C985.755 650.475 1076.07 573.887 1118.43 395.585C1125 703.349 1049.49 779.801 842.186 827.922Z" fill="#F7F7F7"/>
<path d="M277.25 827.922C431.879 855.668 478.677 909.52 540.953 1025.9C448.014 778.065 386.101 641.048 96.0667 505.906C89.9787 546.976 128.465 586.164 214.464 662.74C133.364 650.475 42.8478 573.887 0.392334 395.585C-6.19281 703.349 69.4901 779.801 277.25 827.922Z" fill="#F7F7F7"/>
<path fill-rule="evenodd" clip-rule="evenodd" d="M1009.86 473.03C1010.21 465.729 1010.39 458.381 1010.39 450.992C1010.39 201.916 808.471 0 559.395 0C310.319 0 108.403 201.916 108.403 450.992C108.403 458.381 108.581 465.729 108.932 473.03C120.424 234.19 317.708 44.0763 559.395 44.0763C801.082 44.0763 998.366 234.19 1009.86 473.03Z" fill="#F7F7F7"/>
<path d="M823.74 518.523C823.74 518.523 758.019 480.576 676.946 480.576C672.599 480.576 668.298 480.691 664.047 480.898C671.011 475.252 677.68 469.25 684.025 462.917C741.351 405.591 759.748 331.041 759.748 331.041C759.748 331.041 685.201 349.438 627.873 406.764C617.653 416.984 608.677 427.752 600.816 438.546C605.072 414.335 607.871 387.899 607.871 360.204C607.87 244.196 558.826 150.153 558.826 150.153C558.826 150.153 509.783 244.196 509.783 360.205C509.783 387.9 512.582 414.337 516.837 438.547C508.975 427.753 499.999 416.985 489.781 406.765C432.453 349.438 357.905 331.041 357.905 331.041C357.905 331.041 376.302 405.591 433.628 462.917C439.974 469.25 446.643 475.252 453.607 480.898C449.31 480.687 445.009 480.579 440.708 480.576C359.634 480.575 293.912 518.523 293.912 518.523C293.912 518.523 359.634 556.47 440.707 556.47C458.706 556.47 475.941 554.594 491.875 551.683C491.242 552.292 490.612 552.907 489.987 553.533C451.92 591.6 444.159 645.559 444.159 645.559C444.159 645.559 498.117 637.797 536.184 599.731C538.028 597.877 539.817 595.972 541.55 594.015L557.274 795.363L576.104 594.016C577.827 595.951 579.601 597.865 581.469 599.732C619.536 637.798 673.495 645.56 673.495 645.56C673.495 645.56 665.734 591.601 627.667 553.534C627.042 552.909 626.411 552.292 625.778 551.684C641.712 554.595 658.947 556.471 676.947 556.471C758.019 556.47 823.74 518.523 823.74 518.523Z" fill="#F7F7F7"/>
</svg>