<svg width="900" height="900" viewBox="0 0 900 900" fill="none" xmlns="http://www.w3.org/2000/svg">
<rect width="900" height="900" fill="#EFEFEF"/>
<circle cx="450" cy="450" r="251" fill="white"/>
<path d="M494.75 440.688H482.938V405.25C482.938 395.851 479.204 386.838 472.558 380.192C465.912 373.546 456.899 369.812 447.5 369.812C438.101 369.812 429.088 373.546 422.442 380.192C415.796 386.838 412.062 395.851 412.062 405.25V440.688H400.25C397.117 440.688 394.113 441.932 391.897 444.147C389.682 446.363 388.438 449.367 388.438 452.5V523.375C388.438 526.508 389.682 529.512 391.897 531.728C394.113 533.943 397.117 535.188 400.25 535.188H494.75C497.883 535.188 500.887 533.943 503.103 531.728C505.318 529.512 506.562 526.508 506.562 523.375V452.5C506.562 449.367 505.318 446.363 503.103 444.147C500.887 441.932 497.883 440.688 494.75 440.688ZM423.875 405.25C423.875 398.984 426.364 392.975 430.795 388.545C435.225 384.114 441.234 381.625 447.5 381.625C453.766 381.625 459.775 384.114 464.205 388.545C468.636 392.975 471.125 398.984 471.125 405.25V440.688H423.875V405.25ZM494.75 523.375H400.25V452.5H494.75V523.375Z" fill="black" fill-opacity="0.87"/>
</svg>
