<svg xmlns="http://www.w3.org/2000/svg" width="54" height="48" viewBox="0 0 54 48" fill="none">
<path d="M40.2305 38.7371C33.0116 40.0353 30.8268 42.5549 27.9194 48.0003C32.2679 35.0943 35.1487 29.9936 48.6891 23.6705C48.9733 25.5921 47.1765 27.4256 43.1617 31.0085C46.9478 30.4346 51.1736 26.8512 53.1556 18.5088C53.4631 32.9085 49.9298 36.4856 40.2305 38.7371Z" fill="#18D558"/>
<path d="M13.798 38.7371C21.0328 40.0353 23.2225 42.5549 26.1362 48.0003C21.7878 36.4044 18.891 29.9936 5.32075 23.6705C5.03591 25.5921 6.83663 27.4256 10.8604 31.0085C7.06583 30.4346 2.83073 26.8512 0.844305 18.5088C0.536196 32.9085 4.07727 36.4856 13.798 38.7371Z" fill="#18D558"/>
<path fill-rule="evenodd" clip-rule="evenodd" d="M48.0756 22.1312C48.092 21.7899 48.1003 21.4465 48.1003 21.1012C48.1003 9.44732 38.653 0 26.9991 0C15.3453 0 5.89795 9.44732 5.89795 21.1012C5.89795 21.4473 5.90628 21.7915 5.92276 22.1335C6.45987 10.9581 15.6907 2.0623 26.9992 2.0623C38.307 2.0623 47.5373 10.9568 48.0756 22.1312Z" fill="#18D558"/>
<path d="M39.3674 24.2608C39.3674 24.2608 36.2924 22.4854 32.4992 22.4854C32.2958 22.4854 32.0945 22.4907 31.8956 22.5004C32.2215 22.2363 32.5335 21.9554 32.8304 21.6591C35.5126 18.9769 36.3733 15.4889 36.3733 15.4889C36.3733 15.4889 32.8854 16.3496 30.2031 19.0318C29.7249 19.51 29.305 20.0138 28.9372 20.5188C29.1363 19.3861 29.2672 18.1491 29.2672 16.8533C29.2672 11.4255 26.9725 7.02539 26.9725 7.02539C26.9725 7.02539 24.6779 11.4255 24.6779 16.8534C24.6779 18.1492 24.8088 19.3862 25.0079 20.5189C24.6401 20.0138 24.2201 19.5101 23.742 19.0319C21.0597 16.3496 17.5718 15.4889 17.5718 15.4889C17.5718 15.4889 18.4325 18.9769 21.1147 21.6591C21.4116 21.9554 21.7236 22.2362 22.0495 22.5004C21.8485 22.4905 21.6472 22.4855 21.446 22.4854C17.6526 22.4853 14.5776 24.2608 14.5776 24.2608C14.5776 24.2608 17.6526 26.0363 21.4459 26.0363C22.2881 26.0363 23.0945 25.9485 23.84 25.8123C23.8104 25.8408 23.7809 25.8696 23.7517 25.8989C21.9706 27.68 21.6074 30.2046 21.6074 30.2046C21.6074 30.2046 24.1321 29.8415 25.9132 28.0604C25.9994 27.9737 26.0831 27.8845 26.1642 27.793L26.8999 37.2137L27.7809 27.793C27.8615 27.8836 27.9446 27.9731 28.032 28.0604C29.813 29.8415 32.3377 30.2047 32.3377 30.2047C32.3377 30.2047 31.9746 27.68 30.1935 25.8989C30.1642 25.8697 30.1347 25.8408 30.1051 25.8124C30.8506 25.9486 31.657 26.0364 32.4992 26.0364C36.2924 26.0363 39.3674 24.2608 39.3674 24.2608Z" fill="#18D558"/>
</svg>