<svg xmlns="http://www.w3.org/2000/svg" width="107" height="48" viewBox="0 0 107 48" fill="none">
<path d="M60.4704 18.4539C60.906 18.4539 61.2613 18.3908 61.5364 18.2647C61.823 18.1272 62.0408 17.9495 62.1898 17.7317C62.3503 17.5025 62.4592 17.2446 62.5165 16.958C62.5738 16.66 62.6024 16.3562 62.6024 16.0467V15.7372H64.872V16.0467C64.872 17.4796 64.4938 18.5857 63.7372 19.3651C62.9922 20.1331 61.9032 20.5171 60.4704 20.5171C59.0949 20.5171 58.006 20.0988 57.2036 19.262C56.4012 18.4252 56 17.2044 56 15.5997V12.9174C56 12.1495 56.1032 11.4617 56.3095 10.8542C56.5158 10.2352 56.8138 9.71939 57.2036 9.30673C57.5933 8.88262 58.0633 8.56167 58.6135 8.34388C59.1637 8.11463 59.7827 8 60.4704 8C61.1811 8 61.8115 8.10316 62.3617 8.30949C62.9119 8.51582 63.3704 8.81384 63.7372 9.20357C64.1155 9.5933 64.3963 10.0633 64.5797 10.6135C64.7746 11.1637 64.872 11.7827 64.872 12.4704V12.7799H62.6024V12.4704C62.6024 12.1838 62.5681 11.8973 62.4993 11.6107C62.4305 11.3241 62.3159 11.0662 62.1554 10.837C61.9949 10.6077 61.7771 10.4243 61.502 10.2868C61.2269 10.1378 60.8831 10.0633 60.4704 10.0633C60.0921 10.0633 59.7655 10.1378 59.4904 10.2868C59.2153 10.4243 58.986 10.6192 58.8026 10.8714C58.6192 11.1121 58.4816 11.3987 58.3899 11.7311C58.3097 12.052 58.2696 12.3902 58.2696 12.7455V15.7716C58.2696 16.1614 58.3097 16.5224 58.3899 16.8548C58.4702 17.1758 58.5963 17.4566 58.7682 17.6973C58.9402 17.9381 59.1637 18.1272 59.4388 18.2647C59.7253 18.3908 60.0692 18.4539 60.4704 18.4539Z" fill="#1E1E1E"/>
<path d="M75.0388 20.2764H72.7693V16.6657C72.7693 16.3906 72.6947 16.1671 72.5457 15.9951C72.4082 15.8232 72.1732 15.7372 71.8408 15.7372H69.2273V20.2764H66.9577V8.24071H71.5657C72.1847 8.24071 72.7291 8.32668 73.1991 8.49862C73.6691 8.67056 74.0588 8.91127 74.3683 9.22076C74.6892 9.51879 74.93 9.8684 75.0904 10.2696C75.2624 10.6708 75.3483 11.1006 75.3483 11.5591V11.9718C75.3483 12.4647 75.2165 12.9289 74.9529 13.3645C74.6892 13.7886 74.2823 14.1153 73.7321 14.3445V14.654C74.1333 14.6999 74.4485 14.8546 74.6778 15.1183C74.9185 15.3819 75.0388 15.7143 75.0388 16.1155V20.2764ZM69.2273 13.5708H71.3937C71.944 13.5708 72.3623 13.4447 72.6489 13.1925C72.9355 12.9289 73.0787 12.5621 73.0787 12.0921V11.8858C73.0787 11.4846 72.9355 11.1407 72.6489 10.8542C72.3623 10.5562 71.944 10.4071 71.3937 10.4071H69.2273V13.5708Z" fill="#1E1E1E"/>
<path d="M83.5379 17.6973H79.4457L78.8611 20.2764H76.4884L79.3597 8.24071H83.6238L86.4952 20.2764H84.1224L83.5379 17.6973ZM79.9271 15.5309H83.0392L81.6465 9.37551H81.337L79.9271 15.5309Z" fill="#1E1E1E"/>
<path d="M88.2714 8.24071H95.9743V10.4071H90.541V13.1582H95.8711V15.3246H90.541V20.2764H88.2714V8.24071Z" fill="#1E1E1E"/>
<path d="M98.2147 8.24071H106.88V10.4071H103.682V20.2764H101.413V10.4071H98.2147V8.24071Z" fill="#1E1E1E"/>
<path d="M56 26.7578H64.6657V28.9242H61.4676V38.7935H59.1981V28.9242H56V26.7578Z" fill="#1E1E1E"/>
<path d="M74.9357 38.7935H72.6661V35.1828C72.6661 34.9077 72.5916 34.6842 72.4426 34.5122C72.305 34.3403 72.07 34.2543 71.7376 34.2543H69.1242V38.7935H66.8546V26.7578H71.4625C72.0815 26.7578 72.626 26.8438 73.0959 27.0157C73.5659 27.1877 73.9556 27.4284 74.2651 27.7379C74.5861 28.0359 74.8268 28.3855 74.9873 28.7867C75.1592 29.1879 75.2452 29.6177 75.2452 30.0762V30.4889C75.2452 30.9818 75.1134 31.446 74.8497 31.8816C74.5861 32.3057 74.1792 32.6324 73.629 32.8616V33.1711C74.0301 33.217 74.3454 33.3717 74.5746 33.6354C74.8153 33.899 74.9357 34.2314 74.9357 34.6326V38.7935ZM69.1242 32.0879H71.2906C71.8408 32.0879 72.2592 31.9618 72.5457 31.7096C72.8323 31.446 72.9756 31.0792 72.9756 30.6092V30.4029C72.9756 30.0017 72.8323 29.6578 72.5457 29.3713C72.2592 29.0732 71.8408 28.9242 71.2906 28.9242H69.1242V32.0879Z" fill="#1E1E1E"/>
<path d="M85.7215 26.7578V34.6326C85.7215 36.0081 85.3547 37.0856 84.6211 37.865C83.8989 38.6445 82.8214 39.0342 81.3886 39.0342C79.9558 39.0342 78.8726 38.6445 78.139 37.865C77.4168 37.0856 77.0558 36.0081 77.0558 34.6326V26.7578H79.3254V34.6326C79.3254 35.3433 79.4916 35.8992 79.824 36.3004C80.1564 36.7016 80.6779 36.9022 81.3886 36.9022C82.0993 36.9022 82.6208 36.7016 82.9533 36.3004C83.2857 35.8992 83.4519 35.3433 83.4519 34.6326V26.7578H85.7215Z" fill="#1E1E1E"/>
<path d="M93.9798 30.4373C93.9798 29.9559 93.7906 29.5375 93.4124 29.1821C93.0456 28.8268 92.524 28.6491 91.8477 28.6491C91.2746 28.6491 90.8218 28.7695 90.4894 29.0102C90.157 29.2395 89.9908 29.5547 89.9908 29.9559C89.9908 30.1622 90.0309 30.3513 90.1112 30.5233C90.1914 30.6837 90.3289 30.8328 90.5238 30.9703C90.7301 31.0964 90.9938 31.211 91.3147 31.3142C91.6471 31.4173 92.0655 31.5148 92.5699 31.6065C93.8308 31.8357 94.7936 32.2197 95.4584 32.7585C96.1233 33.2972 96.4557 34.0939 96.4557 35.1484V35.3547C96.4557 35.9164 96.3525 36.4265 96.1462 36.885C95.9513 37.332 95.6648 37.716 95.2865 38.037C94.9082 38.3579 94.4497 38.6044 93.911 38.7763C93.3723 38.9483 92.7647 39.0342 92.0884 39.0342C91.2975 39.0342 90.5983 38.9253 89.9908 38.7075C89.3947 38.4783 88.8961 38.1688 88.4949 37.7791C88.0937 37.3779 87.79 36.9136 87.5837 36.3864C87.3773 35.8476 87.2742 35.263 87.2742 34.6326V34.1168H89.5438V34.5294C89.5438 35.2516 89.7501 35.8304 90.1627 36.266C90.5868 36.6901 91.2402 36.9022 92.1228 36.9022C92.8106 36.9022 93.3207 36.7532 93.6531 36.4551C93.9855 36.1571 94.1517 35.8018 94.1517 35.3891C94.1517 35.1943 94.1173 35.0109 94.0485 34.8389C93.9798 34.6555 93.8594 34.495 93.6875 34.3575C93.5155 34.2085 93.2806 34.0767 92.9825 33.962C92.6845 33.8474 92.3062 33.75 91.8477 33.6697C91.2402 33.5666 90.6843 33.4348 90.1799 33.2743C89.6756 33.1023 89.2343 32.8788 88.856 32.6037C88.4892 32.3286 88.2026 31.9847 87.9963 31.5721C87.79 31.1594 87.6868 30.6551 87.6868 30.059V29.9559C87.6868 29.463 87.7842 29.0102 87.9791 28.5975C88.1854 28.1734 88.4663 27.8066 88.8216 27.4971C89.1884 27.1877 89.624 26.9469 90.1283 26.775C90.6442 26.6031 91.2173 26.5171 91.8477 26.5171C92.5584 26.5171 93.1889 26.6203 93.7391 26.8266C94.2893 27.0214 94.7478 27.2908 95.1146 27.6347C95.4928 27.9786 95.7737 28.374 95.9571 28.8211C96.1519 29.2681 96.2494 29.7381 96.2494 30.231V30.8499H93.9798V30.4373Z" fill="#1E1E1E"/>
<path d="M98.1115 26.7578H106.777V28.9242H103.579V38.7935H101.31V28.9242H98.1115V26.7578Z" fill="#1E1E1E"/>
<path d="M34.1955 35.6667C28.4805 36.6944 26.7509 38.6891 24.4492 43C27.8918 32.7828 30.1724 28.7447 40.8918 23.7389C41.1169 25.2602 39.6944 26.7118 36.516 29.5482C39.5134 29.0939 42.8588 26.257 44.4279 19.6526C44.6713 31.0524 41.8741 33.8842 34.1955 35.6667Z" fill="#18D458"/>
<path d="M13.2694 35.6667C18.9969 36.6944 20.7304 38.6891 23.0371 43C19.5946 33.8199 17.3013 28.7447 6.55819 23.7389C6.33268 25.2602 7.75826 26.7118 10.9437 29.5482C7.9397 29.0939 4.58692 26.257 3.01433 19.6526C2.77041 31.0524 5.57376 33.8842 13.2694 35.6667Z" fill="#18D458"/>
<path fill-rule="evenodd" clip-rule="evenodd" d="M40.4061 22.5236C40.4192 22.2524 40.4258 21.9796 40.4258 21.7051C40.4258 12.4791 32.9467 5 23.7207 5C14.4948 5 7.01562 12.4791 7.01562 21.7051C7.01562 21.978 7.02217 22.2495 7.03511 22.5192C7.46191 13.6734 14.769 6.63262 23.7205 6.63262C32.6735 6.63262 39.9816 13.6758 40.4061 22.5236Z" fill="#18D458"/>
<path d="M33.512 24.2065C33.512 24.2065 31.0776 22.8009 28.0746 22.8009C27.9136 22.8009 27.7543 22.8052 27.5968 22.8128C27.8548 22.6037 28.1018 22.3814 28.3368 22.1468C30.4602 20.0234 31.1417 17.262 31.1417 17.262C31.1417 17.262 28.3804 17.9435 26.2569 20.0669C25.8783 20.4454 25.5458 20.8443 25.2547 21.2441C25.4123 20.3473 25.516 19.3681 25.516 18.3422C25.5159 14.0452 23.6993 10.5618 23.6993 10.5618C23.6993 10.5618 21.8827 14.0452 21.8827 18.3423C21.8827 19.3681 21.9864 20.3474 22.144 21.2441C21.8528 20.8443 21.5203 20.4455 21.1419 20.0669C19.0184 17.9435 16.2571 17.262 16.2571 17.262C16.2571 17.262 16.9385 20.0234 19.0619 22.1468C19.297 22.3814 19.544 22.6037 19.8019 22.8128C19.6428 22.805 19.4835 22.801 19.3241 22.8009C16.3211 22.8009 13.8867 24.2065 13.8867 24.2065C13.8867 24.2065 16.3211 25.6121 19.3241 25.6121C19.9908 25.6121 20.6292 25.5426 21.2194 25.4348C21.196 25.4573 21.1726 25.4801 21.1495 25.5033C19.7395 26.9133 19.452 28.912 19.452 28.912C19.452 28.912 21.4506 28.6245 22.8607 27.2145C22.9289 27.1458 22.9952 27.0753 23.0594 27.0028L23.6419 34.4609L24.3393 27.0028C24.4031 27.0745 24.4689 27.1454 24.5381 27.2145C25.9481 28.6246 27.9468 28.912 27.9468 28.912C27.9468 28.912 27.6593 26.9134 26.2493 25.5033C26.2261 25.4802 26.2028 25.4573 26.1793 25.4348C26.7695 25.5426 27.4079 25.6121 28.0746 25.6121C31.0776 25.6121 33.512 24.2065 33.512 24.2065Z" fill="#18D458"/>
</svg>