<svg xmlns="http://www.w3.org/2000/svg" width="154" height="154" viewBox="0 0 154 154" fill="none">
  <path d="M115.644 26.1319C110.145 24.427 104.31 24.1047 98.6563 25.1935C91.6214 26.8629 85.4984 31.175 81.5563 37.236C77.6141 43.2971 76.155 50.6425 77.4813 57.7501C78.1645 61.6408 79.6707 65.3407 81.8991 68.6024C84.1275 71.8641 87.0267 74.6123 90.4028 76.6632L91.8466 77.5294C96.9097 80.5947 101.063 84.9557 103.878 90.1623C106.718 95.3045 108.363 101.02 108.69 106.886" stroke="#18D458"/>
  <path d="M63.9822 77.7701C67.9976 74.8182 71.2664 70.9674 73.5269 66.5259C75.7873 62.0843 76.9768 57.1753 77 52.1917" stroke="#18D458"/>
  <path d="M90.4028 76.6391C86.522 74.6851 82.2267 73.6975 77.8822 73.7604C73.5377 73.8232 69.2727 74.9346 65.45 77L63.9822 77.7941C58.8339 80.6379 53.0176 82.0504 47.1384 81.8847C40.81 81.7163 31.9309 78.4197 26.1078 75.7247" stroke="#18D458"/>
  <path d="M77 134.75C38.5 105.875 19.25 81.8125 19.25 33.6875C19.25 33.6875 48.125 19.25 77 19.25C105.875 19.25 134.75 33.6875 134.75 33.6875C134.75 81.8125 115.5 105.875 77 134.75Z" stroke="#18D458"/>
</svg>