<svg xmlns="http://www.w3.org/2000/svg" width="154" height="154" viewBox="0 0 154 154" fill="none">
  <path d="M77 43.6975C71.1484 40.3031 64.5057 38.5104 57.7409 38.5C50.976 38.4897 44.3279 40.2619 38.4659 43.6383C32.6039 47.0148 27.7351 51.8761 24.3496 57.7329C20.9642 63.5897 19.1818 70.2352 19.1818 77C19.1818 83.7648 20.9642 90.4103 24.3496 96.2671C27.7351 102.124 32.6039 106.985 38.4659 110.362C44.3279 113.738 50.976 115.51 57.7409 115.5C64.5057 115.49 71.1484 113.697 77 110.303" stroke="#18D458"/>
  <path d="M96.25 115.5C117.513 115.5 134.75 98.263 134.75 77C134.75 55.737 117.513 38.5 96.25 38.5C74.987 38.5 57.75 55.737 57.75 77C57.75 98.263 74.987 115.5 96.25 115.5Z" stroke="#18D458"/>
  <path d="M38.5 77H105.875" stroke="#18D458"/>
  <path d="M86.625 96.25L105.875 77L86.625 57.75" stroke="#18D458"/>
</svg>