<svg width="154" height="154" viewBox="0 0 154 154" fill="none" xmlns="http://www.w3.org/2000/svg">
<path d="M31.2812 43.3125C37.9259 43.3125 43.3125 37.9259 43.3125 31.2812C43.3125 24.6366 37.9259 19.25 31.2812 19.25C24.6366 19.25 19.25 24.6366 19.25 31.2812C19.25 37.9259 24.6366 43.3125 31.2812 43.3125Z" stroke="#18D458"/>
<path d="M31.2812 134.75C37.9259 134.75 43.3125 129.363 43.3125 122.719C43.3125 116.074 37.9259 110.688 31.2812 110.688C24.6366 110.688 19.25 116.074 19.25 122.719C19.25 129.363 24.6366 134.75 31.2812 134.75Z" stroke="#18D458"/>
<path d="M31.2812 89.0312C37.9259 89.0312 43.3125 83.6447 43.3125 77C43.3125 70.3553 37.9259 64.9688 31.2812 64.9688C24.6366 64.9688 19.25 70.3553 19.25 77C19.25 83.6447 24.6366 89.0312 31.2812 89.0312Z" stroke="#18D458"/>
<path d="M122.719 43.3125C129.363 43.3125 134.75 37.9259 134.75 31.2812C134.75 24.6366 129.363 19.25 122.719 19.25C116.074 19.25 110.688 24.6366 110.688 31.2812C110.688 37.9259 116.074 43.3125 122.719 43.3125Z" stroke="#18D458"/>
<path d="M122.719 134.75C129.363 134.75 134.75 129.363 134.75 122.719C134.75 116.074 129.363 110.688 122.719 110.688C116.074 110.688 110.688 116.074 110.688 122.719C110.688 129.363 116.074 134.75 122.719 134.75Z" stroke="#18D458"/>
<path d="M122.719 89.0312C129.363 89.0312 134.75 83.6447 134.75 77C134.75 70.3553 129.363 64.9688 122.719 64.9688C116.074 64.9688 110.688 70.3553 110.688 77C110.688 83.6447 116.074 89.0312 122.719 89.0312Z" stroke="#18D458"/>
<path d="M77 43.3125C83.6447 43.3125 89.0312 37.9259 89.0312 31.2812C89.0312 24.6366 83.6447 19.25 77 19.25C70.3553 19.25 64.9688 24.6366 64.9688 31.2812C64.9688 37.9259 70.3553 43.3125 77 43.3125Z" stroke="#18D458"/>
<path d="M77 134.75C83.6447 134.75 89.0312 129.363 89.0312 122.719C89.0312 116.074 83.6447 110.688 77 110.688C70.3553 110.688 64.9688 116.074 64.9688 122.719C64.9688 129.363 70.3553 134.75 77 134.75Z" stroke="#18D458"/>
<path d="M77 89.0312C83.6447 89.0312 89.0312 83.6447 89.0312 77C89.0312 70.3553 83.6447 64.9688 77 64.9688C70.3553 64.9688 64.9688 70.3553 64.9688 77C64.9688 83.6447 70.3553 89.0312 77 89.0312Z" stroke="#18D458"/>
</svg>
