<svg xmlns="http://www.w3.org/2000/svg" width="80" height="80" viewBox="0 0 80 80" fill="none">
<g clip-path="url(#clip0_17_9)">
<path d="M63.5205 51.1309C63.3095 51.0029 58.2831 47.9854 52 47.9854C51.353 47.9854 50.7109 48.011 50.076 48.05C51.5504 47.2494 53.0359 46.3223 54.4102 45.2491C61.0468 40.0674 63.8359 31.6494 63.9511 31.2939C64.0035 31.1319 64.0139 30.9592 63.9811 30.7921C63.9482 30.625 63.8734 30.469 63.7636 30.3388C63.5389 30.0761 63.1991 29.9541 62.8524 29.9961C62.5653 30.039 55.7606 31.1084 49.5321 36.7695C47.8489 38.2998 46.3251 39.9991 44.9861 41.6685C45.5799 39.3523 45.9999 36.7542 45.9999 33.9854C45.9999 24.4083 41.0468 16.7569 40.8359 16.4365C40.4667 15.874 39.5331 15.874 39.164 16.4365C38.953 16.7569 33.9999 24.4083 33.9999 33.9854C33.9999 36.7542 34.4199 39.3523 35.0137 41.6686C33.6747 39.9992 32.151 38.2998 30.4677 36.7696C24.2391 31.1084 17.4345 30.0391 17.1474 29.9961C16.8066 29.9541 16.4619 30.0762 16.2363 30.3389C16.1264 30.4691 16.0516 30.6251 16.0188 30.7922C15.986 30.9593 15.9963 31.132 16.0488 31.294C16.164 31.6494 18.953 40.0674 25.5898 45.2491C26.9642 46.3223 28.4496 47.2494 29.924 48.05C29.2891 48.0111 28.647 47.9854 28 47.9854C21.7168 47.9854 16.6905 51.003 16.4795 51.1309C16.3327 51.2206 16.2114 51.3466 16.1275 51.4968C16.0435 51.6469 15.9996 51.8162 16 51.9883C16.0005 52.1605 16.0454 52.3296 16.1304 52.4793C16.2154 52.6291 16.3377 52.7543 16.4854 52.8428C16.6991 52.9707 21.7939 55.9853 27.9999 55.9853C29.3842 55.9853 30.7485 55.7865 32.0446 55.4846C29.9232 57.9831 29.9943 60.8844 30.0009 61.0283C30.0076 61.1803 30.0488 61.3287 30.1214 61.4624C30.194 61.5961 30.2961 61.7114 30.4199 61.7998C30.5892 61.9206 30.792 61.9855 31 61.9853C31.0957 61.9853 31.1914 61.9716 31.2852 61.9443C31.4356 61.8994 35.0137 60.8085 37.7559 57.6396C38.2475 57.0715 38.6438 56.5086 39.0001 55.956V62.9853C39 63.1166 39.0258 63.2467 39.076 63.3681C39.1262 63.4894 39.1999 63.5997 39.2928 63.6926C39.3857 63.7855 39.4959 63.8591 39.6173 63.9094C39.7387 63.9596 39.8688 63.9854 40.0001 63.9853C40.1315 63.9854 40.2615 63.9596 40.3829 63.9094C40.5043 63.8591 40.6145 63.7855 40.7074 63.6926C40.8003 63.5997 40.874 63.4894 40.9242 63.3681C40.9744 63.2467 41.0002 63.1166 41.0001 62.9853V55.956C41.3563 56.5086 41.7527 57.0716 42.2443 57.6396C44.9865 60.8085 48.5646 61.8994 48.715 61.9443C48.8088 61.9716 48.9045 61.9853 49.0002 61.9853C49.2063 61.9853 49.4094 61.9219 49.5803 61.7998C49.7041 61.7114 49.8062 61.5961 49.8788 61.4624C49.9514 61.3287 49.9926 61.1803 49.9993 61.0283C50.0059 60.8843 50.0778 57.9756 47.9482 55.4751C49.2514 55.7826 50.6197 55.9854 52.0002 55.9854C58.2834 55.9854 63.3097 52.9678 63.5207 52.8399C63.8185 52.6582 64.0002 52.3341 64.0002 51.9854C64.0002 51.6367 63.8183 51.3126 63.5205 51.1309ZM50.8778 38.25C54.8056 34.6787 59.0536 33.0644 61.3788 32.3955C60.2391 35.0537 57.6073 40.2158 53.1796 43.6729C49.5125 46.5362 44.869 48.375 42.1161 49.2998C43.7499 46.5948 46.9023 41.8642 50.8778 38.25ZM26.8203 43.6729C22.4023 40.2236 19.7656 35.0576 18.6229 32.3965C20.9481 33.0654 25.1952 34.6797 29.122 38.2501C33.0927 41.8595 36.247 46.5929 37.8828 49.2989C35.1298 48.3741 30.4872 46.5351 26.8203 43.6729ZM27.9999 53.9854C24.3866 53.9854 21.1152 52.8223 19.2206 51.9795C21.0965 51.1397 24.3388 49.9853 27.9999 49.9853C31.6259 49.9853 35.2363 50.7305 37.4618 51.2998C35.2987 52.4278 31.6504 53.9854 27.9999 53.9854ZM36.2441 56.3311C34.9179 57.8623 33.3359 58.8398 32.204 59.4023C32.4784 58.33 33.1181 56.8965 34.5995 55.7852C36.1015 54.6592 37.3183 53.8193 38.2441 53.2129C37.8271 54.1348 37.1943 55.2324 36.2441 56.3311ZM40.1757 48.6383C40.1167 48.7381 40.0542 48.8424 39.9999 48.9356C39.9456 48.8425 39.8831 48.7381 39.8241 48.6383C38.4079 45.9108 35.9999 40.3537 35.9999 33.9854C35.9999 27.3614 38.6161 21.5821 39.9999 18.9874C41.3837 21.5821 43.9999 27.3614 43.9999 33.9854C43.9999 40.3537 41.592 45.9108 40.1757 48.6383ZM43.7558 56.3311C42.945 55.3948 42.2736 54.3462 41.7627 53.2178C42.6885 53.8233 43.9024 54.6621 45.4004 55.7852C46.8896 56.9024 47.5283 58.3359 47.8008 59.4092C46.6718 58.8497 45.0918 57.874 43.7558 56.3311ZM51.9999 53.9854C48.3974 53.9854 44.7314 52.4248 42.5507 51.2949C44.7753 50.7276 48.3749 49.9853 51.9999 49.9853C55.6552 49.9853 58.91 51.1455 60.789 51.9863C58.914 52.8272 55.6669 53.9854 51.9999 53.9854Z" fill="#9B9B9B"/>
</g>
<defs>
<clipPath id="clip0_17_9">
<rect width="48" height="48" fill="white" transform="translate(16 16)"/>
</clipPath>
</defs>
</svg>