<svg xmlns="http://www.w3.org/2000/svg" width="81" height="80" viewBox="0 0 81 80" fill="none">
<mask id="mask0_660_2700" style="mask-type:luminance" maskUnits="userSpaceOnUse" x="0" y="0" width="82" height="81">
<path d="M0 0H81.002V80.0015H0V0Z" fill="white"/>
</mask>
<g mask="url(#mask0_660_2700)">
<path d="M51.9307 22.5448C53.2055 21.818 54.6673 20.7645 55.9857 19.275C55.9857 19.275 56.6192 22.5391 55.4301 25.5125" stroke="#9B9B9B" stroke-miterlimit="10" stroke-linecap="round" stroke-linejoin="round"/>
<path d="M25.9192 28.6589C24.6296 28.0707 23.232 27.2092 21.9982 25.9518C21.9982 25.9518 21.5316 28.8621 22.936 31.8928" stroke="#9B9B9B" stroke-miterlimit="10" stroke-linecap="round" stroke-linejoin="round"/>
<path d="M25.9029 56.3674C25.4941 57.5149 24.7882 58.7778 23.584 59.9503C23.584 59.9503 26.9652 60.5679 29.9338 58.563" stroke="#9B9B9B" stroke-miterlimit="10" stroke-linecap="round" stroke-linejoin="round"/>
<path d="M34.8651 17.1431C34.755 17.5685 34.716 18.0081 34.7498 18.4452C32.7789 17.3834 30.4375 19.3728 31.3161 21.3791C29.3105 21.5323 27.63 23.0533 27.3693 24.9736C27.2788 25.6401 27.3581 26.3263 27.602 26.9565" stroke="#9B9B9B" stroke-miterlimit="10" stroke-linecap="round" stroke-linejoin="round"/>
<path d="M52.3194 24.5779C52.4128 21.8959 50.214 19.2801 47.3641 18.95C47.9635 17.1833 46.3472 15.3335 44.4337 15.5745C43.8696 15.6456 43.3383 15.8909 42.9248 16.266C42.0597 14.6376 40.1294 13.7331 38.2607 14.0699" stroke="#9B9B9B" stroke-miterlimit="10" stroke-linecap="round" stroke-linejoin="round"/>
<path d="M33.593 26.5407C32.4878 26.016 31.203 25.8162 29.8966 26.046C27.0446 26.5473 25.0486 28.9276 25.0403 31.609C24.6613 31.4795 24.2534 31.4483 23.8579 31.5183C22.6099 31.7377 21.7837 32.8853 22.0125 34.0814C22.1259 34.6733 22.4768 35.166 22.9534 35.4863C22.0151 36.2163 21.5107 37.4017 21.7442 38.6212C21.8452 39.1531 22.0826 39.6525 22.4348 40.0742" stroke="#9B9B9B" stroke-miterlimit="10" stroke-linecap="round" stroke-linejoin="round"/>
<path d="M58.0774 40.7439C58.8518 40.2672 59.4493 39.5673 59.7844 38.7443C60.6678 36.5834 59.5558 34.1455 57.3008 33.299C57.0385 33.2006 56.767 33.1267 56.4901 33.0781C56.8563 32.6593 57.1491 32.1861 57.3571 31.677C58.4197 29.0779 57.0823 26.1456 54.3701 25.1275C52.7061 24.5028 50.9119 24.745 49.5279 25.6247C49.0909 24.7449 48.3184 24.0158 47.297 23.6323C45.1644 22.8316 42.7582 23.8394 41.9229 25.883" stroke="#9B9B9B" stroke-miterlimit="10" stroke-linecap="round" stroke-linejoin="round"/>
<path d="M48.6938 60.7201C48.9286 61.7465 49.2639 62.8672 49.7421 63.9994C49.7421 63.9994 45.9029 64.1133 43.4521 61.2106" stroke="#9B9B9B" stroke-miterlimit="10" stroke-linecap="round" stroke-linejoin="round"/>
<path d="M43.2006 33.6289C44.3533 32.8415 45.1006 31.5337 45.0524 30.0946C44.9856 28.1102 43.4714 26.4775 41.4888 26.131C41.4918 26.0715 41.4936 26.012 41.4936 25.9518C41.4936 23.8488 39.7149 22.1439 37.5204 22.1432C35.3313 22.1425 33.5445 23.8541 33.5446 25.952C33.5438 26.7422 33.8004 27.5127 34.2786 28.1556C34.2326 28.1534 34.1863 28.1522 34.1398 28.1522C32.5607 28.1522 31.292 29.4263 31.3923 30.9602C31.4235 31.4398 31.5922 31.8869 31.8604 32.2652" stroke="#9B9B9B" stroke-miterlimit="10" stroke-linecap="round" stroke-linejoin="round"/>
<path d="M48.3644 38.0886C47.9333 37.042 46.8683 36.3016 45.6229 36.3016C45.2215 36.3016 44.839 36.3788 44.4903 36.5181C44.0832 34.0115 41.8211 32.093 39.0912 32.093C38.0215 32.0915 36.975 32.3926 36.0823 32.9587C35.5546 32.197 34.6518 31.6947 33.6263 31.6947C31.9991 31.6947 30.68 32.9587 30.68 34.518V34.5196C28.13 34.5532 26.0732 36.5435 26.0732 38.9952C26.0732 39.2844 26.1018 39.567 26.1564 39.8408" stroke="#9B9B9B" stroke-miterlimit="10" stroke-linecap="round" stroke-linejoin="round"/>
<path d="M50.893 41.9233C51.1518 40.3048 51.6912 38.1623 52.816 36.2748C52.816 36.2748 48.871 36.8845 46.1006 40.034" stroke="#9B9B9B" stroke-miterlimit="10" stroke-linecap="round" stroke-linejoin="round"/>
<path d="M59.9773 54.8577C60.6452 53.9104 61.0014 52.792 60.9996 51.6478C60.9996 50.0248 60.2962 48.5601 59.1671 47.5153C59.7675 46.6975 60.0893 45.721 60.0882 44.7202C60.0882 42.0295 57.8118 39.8482 55.0039 39.8482C53.2856 39.8482 51.7676 40.6659 50.8473 41.9164C49.4836 40.7404 47.6795 40.0242 45.7005 40.0242C42.3847 40.0242 39.5588 42.0331 38.4756 44.8502" stroke="#9B9B9B" stroke-miterlimit="10" stroke-linecap="round" stroke-linejoin="round"/>
<path d="M38.2197 58.8737C39.0901 60.2728 40.6851 61.21 42.5083 61.21C44.1228 61.21 45.5572 60.4745 46.4692 59.3348C47.1712 60.2316 48.2897 60.8118 49.5495 60.8118C51.6545 60.8118 53.3636 59.1922 53.3967 57.1827C53.9201 57.3223 54.4609 57.3932 55.0042 57.3932C55.3742 57.3932 55.7364 57.3611 56.0879 57.2996" stroke="#9B9B9B" stroke-miterlimit="10" stroke-linecap="round" stroke-linejoin="round"/>
<path d="M40.9951 49.449C40.9951 46.3504 38.3738 43.8383 35.1402 43.8383C34.7626 43.8383 34.3936 43.8739 34.0358 43.9394C34.0367 43.9104 34.0382 43.8815 34.0382 43.8523C34.0382 42.0435 32.508 40.5773 30.6206 40.5773C29.8109 40.5761 29.0273 40.852 28.41 41.3555C27.6687 40.3632 26.4567 39.7159 25.0862 39.7159C22.8294 39.7159 21 41.4689 21 43.6314C21 45.0666 21.8063 46.3209 23.0081 47.0026C22.17 48.0211 21.6684 49.3058 21.6684 50.7035C21.6684 54.0081 24.4639 56.6869 27.9125 56.6869C28.3035 56.6869 28.6855 56.6508 29.0566 56.5849C29.5028 58.896 31.6156 60.6467 34.1564 60.6467C37.0218 60.6467 39.3445 58.4209 39.3445 55.6751C39.3453 55.0046 39.204 54.3409 38.9294 53.7245C40.1928 52.6953 40.9951 51.1623 40.9951 49.449Z" stroke="#9B9B9B" stroke-miterlimit="10" stroke-linecap="round" stroke-linejoin="round"/>
<path d="M24.9609 50.2981C24.9609 51.9947 26.3937 53.3677 28.1643 53.3677" stroke="#9B9B9B" stroke-miterlimit="10" stroke-linecap="round" stroke-linejoin="round"/>
</g>
</svg>