<svg width="289" height="290" viewBox="0 0 289 290" fill="none" xmlns="http://www.w3.org/2000/svg">
<path d="M12.0775 0.625H0.5625V12.175H12.0775V0.625Z" fill="black"/>
<path d="M23.5925 0.625H12.0775V12.175H23.5925V0.625Z" fill="black"/>
<path d="M35.1075 0.625H23.5925V12.175H35.1075V0.625Z" fill="black"/>
<path d="M46.6225 0.625H35.1075V12.175H46.6225V0.625Z" fill="black"/>
<path d="M58.1375 0.625H46.6225V12.175H58.1375V0.625Z" fill="black"/>
<path d="M69.6525 0.625H58.1375V12.175H69.6525V0.625Z" fill="black"/>
<path d="M81.1675 0.625H69.6525V12.175H81.1675V0.625Z" fill="black"/>
<path d="M104.197 0.625H92.6825V12.175H104.197V0.625Z" fill="black"/>
<path d="M115.713 0.625H104.197V12.175H115.713V0.625Z" fill="black"/>
<path d="M127.228 0.625H115.713V12.175H127.228V0.625Z" fill="black"/>
<path d="M138.742 0.625H127.228V12.175H138.742V0.625Z" fill="black"/>
<path d="M184.803 0.625H173.288V12.175H184.803V0.625Z" fill="black"/>
<path d="M219.348 0.625H207.833V12.175H219.348V0.625Z" fill="black"/>
<path d="M230.863 0.625H219.348V12.175H230.863V0.625Z" fill="black"/>
<path d="M242.378 0.625H230.863V12.175H242.378V0.625Z" fill="black"/>
<path d="M253.893 0.625H242.378V12.175H253.893V0.625Z" fill="black"/>
<path d="M265.408 0.625H253.893V12.175H265.408V0.625Z" fill="black"/>
<path d="M276.923 0.625H265.408V12.175H276.923V0.625Z" fill="black"/>
<path d="M288.438 0.625H276.923V12.175H288.438V0.625Z" fill="black"/>
<path d="M12.0775 12.175H0.5625V23.725H12.0775V12.175Z" fill="black"/>
<path d="M81.1675 12.175H69.6525L69.6525 23.725H81.1675V12.175Z" fill="black"/>
<path d="M115.713 12.175H104.197V23.725H115.713V12.175Z" fill="black"/>
<path d="M127.228 12.175H115.713V23.725H127.228V12.175Z" fill="black"/>
<path d="M138.742 12.175H127.228V23.725H138.742V12.175Z" fill="black"/>
<path d="M150.257 12.175H138.742V23.725H150.257V12.175Z" fill="black"/>
<path d="M161.772 12.175H150.257V23.725H161.772V12.175Z" fill="black"/>
<path d="M173.288 12.175H161.772V23.725H173.287L173.288 12.175Z" fill="black"/>
<path d="M219.348 12.175H207.833V23.725H219.348V12.175Z" fill="black"/>
<path d="M288.438 12.175H276.923V23.725H288.438V12.175Z" fill="black"/>
<path d="M12.0775 23.725H0.5625V35.275H12.0775V23.725Z" fill="black"/>
<path d="M35.1075 23.725H23.5925V35.275H35.1075V23.725Z" fill="black"/>
<path d="M46.6225 23.725H35.1075V35.275H46.6225V23.725Z" fill="black"/>
<path d="M58.1375 23.725H46.6225V35.275H58.1375V23.725Z" fill="black"/>
<path d="M81.1675 23.725H69.6525V35.275H81.1675V23.725Z" fill="black"/>
<path d="M104.197 23.725H92.6825V35.275H104.197V23.725Z" fill="black"/>
<path d="M115.713 23.725H104.197V35.275H115.713V23.725Z" fill="black"/>
<path d="M127.228 23.725H115.713V35.275H127.228V23.725Z" fill="black"/>
<path d="M138.742 23.725H127.228V35.275H138.742V23.725Z" fill="black"/>
<path d="M173.287 23.725H161.772V35.275H173.287V23.725Z" fill="black"/>
<path d="M196.318 23.725H184.803V35.275H196.318V23.725Z" fill="black"/>
<path d="M219.348 23.725H207.833V35.275H219.348V23.725Z" fill="black"/>
<path d="M242.378 23.725H230.863V35.275H242.378V23.725Z" fill="black"/>
<path d="M253.893 23.725H242.378V35.275H253.893V23.725Z" fill="black"/>
<path d="M265.408 23.725H253.893V35.275H265.408V23.725Z" fill="black"/>
<path d="M288.438 23.725H276.923V35.275H288.438V23.725Z" fill="black"/>
<path d="M12.0775 35.275H0.5625V46.825H12.0775V35.275Z" fill="black"/>
<path d="M35.1075 35.275H23.5925V46.825H35.1075V35.275Z" fill="black"/>
<path d="M46.6225 35.275H35.1075V46.825H46.6225V35.275Z" fill="black"/>
<path d="M58.1375 35.275H46.6225V46.825H58.1375V35.275Z" fill="black"/>
<path d="M81.1675 35.275H69.6525V46.825H81.1675V35.275Z" fill="black"/>
<path d="M104.197 35.275H92.6825V46.825H104.197V35.275Z" fill="black"/>
<path d="M115.713 35.275H104.197V46.825H115.713V35.275Z" fill="black"/>
<path d="M127.228 35.275H115.713V46.825H127.228V35.275Z" fill="black"/>
<path d="M150.257 35.275H138.742V46.825H150.257V35.275Z" fill="black"/>
<path d="M219.348 35.275H207.833V46.825H219.348V35.275Z" fill="black"/>
<path d="M242.378 35.275H230.863V46.825H242.378V35.275Z" fill="black"/>
<path d="M253.893 35.275H242.378V46.825H253.893V35.275Z" fill="black"/>
<path d="M265.408 35.275H253.893V46.825H265.408V35.275Z" fill="black"/>
<path d="M288.438 35.275H276.923V46.825H288.438V35.275Z" fill="black"/>
<path d="M12.0775 46.825H0.5625V58.375H12.0775V46.825Z" fill="black"/>
<path d="M35.1075 46.825H23.5925V58.375H35.1075V46.825Z" fill="black"/>
<path d="M46.6225 46.825H35.1075V58.375H46.6225V46.825Z" fill="black"/>
<path d="M58.1375 46.825H46.6225V58.375H58.1375V46.825Z" fill="black"/>
<path d="M81.1675 46.825H69.6525V58.375H81.1675V46.825Z" fill="black"/>
<path d="M138.742 46.825H127.228V58.375H138.742V46.825Z" fill="black"/>
<path d="M173.287 46.825H161.772V58.375H173.287V46.825Z" fill="black"/>
<path d="M184.803 46.825H173.287V58.375H184.803V46.825Z" fill="black"/>
<path d="M196.318 46.825H184.803V58.375H196.318V46.825Z" fill="black"/>
<path d="M219.348 46.825H207.833V58.375H219.348V46.825Z" fill="black"/>
<path d="M242.378 46.825H230.863V58.375H242.378V46.825Z" fill="black"/>
<path d="M253.893 46.825H242.378V58.375H253.893V46.825Z" fill="black"/>
<path d="M265.408 46.825H253.893V58.375H265.408V46.825Z" fill="black"/>
<path d="M288.438 46.825H276.923V58.375H288.438V46.825Z" fill="black"/>
<path d="M12.0775 58.375H0.5625V69.925H12.0775V58.375Z" fill="black"/>
<path d="M81.1675 58.375H69.6525V69.925H81.1675V58.375Z" fill="black"/>
<path d="M104.197 58.375H92.6825V69.925H104.197V58.375Z" fill="black"/>
<path d="M115.713 58.375H104.197V69.925H115.713V58.375Z" fill="black"/>
<path d="M127.228 58.375H115.713V69.925H127.228V58.375Z" fill="black"/>
<path d="M138.742 58.375H127.228V69.925H138.742V58.375Z" fill="black"/>
<path d="M173.287 58.375H161.772V69.925H173.287V58.375Z" fill="black"/>
<path d="M184.803 58.375H173.287V69.925H184.803V58.375Z" fill="black"/>
<path d="M219.348 58.375H207.833V69.925H219.348V58.375Z" fill="black"/>
<path d="M288.438 58.375H276.923V69.925H288.438V58.375Z" fill="black"/>
<path d="M12.0775 69.925H0.5625V81.475H12.0775V69.925Z" fill="black"/>
<path d="M23.5925 69.925H12.0775V81.475H23.5925V69.925Z" fill="black"/>
<path d="M35.1075 69.925H23.5925V81.475H35.1075V69.925Z" fill="black"/>
<path d="M46.6225 69.925H35.1075V81.475H46.6225V69.925Z" fill="black"/>
<path d="M58.1375 69.925H46.6225V81.475H58.1375V69.925Z" fill="black"/>
<path d="M69.6525 69.925H58.1375V81.475H69.6525L69.6525 69.925Z" fill="black"/>
<path d="M81.1675 69.925H69.6525L69.6525 81.475H81.1675V69.925Z" fill="black"/>
<path d="M104.197 69.925H92.6825V81.475H104.197V69.925Z" fill="black"/>
<path d="M127.228 69.925H115.713V81.475H127.228V69.925Z" fill="black"/>
<path d="M150.257 69.925H138.742V81.475H150.257V69.925Z" fill="black"/>
<path d="M173.287 69.925H161.772V81.475H173.287V69.925Z" fill="black"/>
<path d="M196.318 69.925H184.803V81.475H196.318V69.925Z" fill="black"/>
<path d="M219.348 69.925H207.833V81.475H219.348V69.925Z" fill="black"/>
<path d="M230.863 69.925H219.348V81.475H230.863V69.925Z" fill="black"/>
<path d="M242.378 69.925H230.863V81.475H242.378V69.925Z" fill="black"/>
<path d="M253.893 69.925H242.378V81.475H253.893V69.925Z" fill="black"/>
<path d="M265.408 69.925H253.893V81.475H265.408V69.925Z" fill="black"/>
<path d="M276.923 69.925H265.408V81.475H276.923V69.925Z" fill="black"/>
<path d="M288.438 69.925H276.923V81.475H288.438V69.925Z" fill="black"/>
<path d="M104.197 81.475H92.6825V93.025H104.197V81.475Z" fill="black"/>
<path d="M115.713 81.475H104.197V93.025H115.713V81.475Z" fill="black"/>
<path d="M127.228 81.475H115.713V93.025H127.228V81.475Z" fill="black"/>
<path d="M150.257 81.475H138.742V93.025H150.257V81.475Z" fill="black"/>
<path d="M173.287 81.475H161.772V93.025H173.287V81.475Z" fill="black"/>
<path d="M184.803 81.475H173.287V93.025H184.803V81.475Z" fill="black"/>
<path d="M196.318 81.475H184.803V93.025H196.318V81.475Z" fill="black"/>
<path d="M12.0775 93.025H0.5625V104.575H12.0775V93.025Z" fill="black"/>
<path d="M23.5925 93.025H12.0775V104.575H23.5925V93.025Z" fill="black"/>
<path d="M46.6225 93.025H35.1075V104.575H46.6225V93.025Z" fill="black"/>
<path d="M81.1675 93.025H69.6525V104.575H81.1675V93.025Z" fill="black"/>
<path d="M92.6825 93.025H81.1675V104.575H92.6825V93.025Z" fill="black"/>
<path d="M150.257 93.025H138.742V104.575H150.257V93.025Z" fill="black"/>
<path d="M161.772 93.025H150.257V104.575H161.772V93.025Z" fill="black"/>
<path d="M173.287 93.025H161.772V104.575H173.287V93.025Z" fill="black"/>
<path d="M196.318 93.025H184.803V104.575H196.318V93.025Z" fill="black"/>
<path d="M207.833 93.025H196.318V104.575H207.833V93.025Z" fill="black"/>
<path d="M219.348 93.025H207.833V104.575H219.348V93.025Z" fill="black"/>
<path d="M230.863 93.025H219.348V104.575H230.863V93.025Z" fill="black"/>
<path d="M253.893 93.025H242.378V104.575H253.893V93.025Z" fill="black"/>
<path d="M265.408 93.025H253.893V104.575H265.408V93.025Z" fill="black"/>
<path d="M288.438 93.025H276.923V104.575H288.438V93.025Z" fill="black"/>
<path d="M12.0775 104.575H0.5625V116.125H12.0775V104.575Z" fill="black"/>
<path d="M58.1375 104.575H46.6225V116.125H58.1375V104.575Z" fill="black"/>
<path d="M69.6525 104.575H58.1375V116.125H69.6525L69.6525 104.575Z" fill="black"/>
<path d="M92.6825 104.575H81.1675V116.125H92.6825V104.575Z" fill="black"/>
<path d="M127.228 104.575H115.713V116.125H127.228V104.575Z" fill="black"/>
<path d="M138.742 104.575H127.228V116.125H138.742V104.575Z" fill="black"/>
<path d="M161.772 104.575H150.257V116.125H161.772V104.575Z" fill="black"/>
<path d="M184.803 104.575H173.287L173.288 116.125H184.803V104.575Z" fill="black"/>
<path d="M196.318 104.575H184.803V116.125H196.318V104.575Z" fill="black"/>
<path d="M230.863 104.575H219.348V116.125H230.863V104.575Z" fill="black"/>
<path d="M253.893 104.575H242.378V116.125H253.893V104.575Z" fill="black"/>
<path d="M12.0775 116.125H0.5625V127.675H12.0775V116.125Z" fill="black"/>
<path d="M35.1075 116.125H23.5925V127.675H35.1075V116.125Z" fill="black"/>
<path d="M69.6525 116.125H58.1375V127.675H69.6525V116.125Z" fill="black"/>
<path d="M81.1675 116.125H69.6525V127.675H81.1675V116.125Z" fill="black"/>
<path d="M104.197 116.125H92.6825V127.675H104.197V116.125Z" fill="black"/>
<path d="M115.713 116.125H104.197V127.675H115.713V116.125Z" fill="black"/>
<path d="M161.772 116.125H150.257V127.675H161.772V116.125Z" fill="black"/>
<path d="M196.318 116.125H184.803V127.675H196.318V116.125Z" fill="black"/>
<path d="M219.348 116.125H207.833V127.675H219.348V116.125Z" fill="black"/>
<path d="M230.863 116.125H219.348V127.675H230.863V116.125Z" fill="black"/>
<path d="M242.378 116.125H230.863V127.675H242.378V116.125Z" fill="black"/>
<path d="M276.923 116.125H265.408V127.675H276.923V116.125Z" fill="black"/>
<path d="M12.0775 127.675H0.5625V139.225H12.0775V127.675Z" fill="black"/>
<path d="M69.6525 127.675H58.1375V139.225H69.6525V127.675Z" fill="black"/>
<path d="M104.197 127.675H92.6825V139.225H104.197V127.675Z" fill="black"/>
<path d="M115.713 127.675H104.197V139.225H115.713V127.675Z" fill="black"/>
<path d="M138.742 127.675H127.228V139.225H138.742V127.675Z" fill="black"/>
<path d="M150.257 127.675H138.742V139.225H150.257V127.675Z" fill="black"/>
<path d="M161.772 127.675H150.257V139.225H161.772V127.675Z" fill="black"/>
<path d="M196.318 127.675H184.803V139.225H196.318V127.675Z" fill="black"/>
<path d="M219.348 127.675H207.833V139.225H219.348V127.675Z" fill="black"/>
<path d="M242.378 127.675H230.863V139.225H242.378V127.675Z" fill="black"/>
<path d="M265.408 127.675H253.893V139.225H265.408V127.675Z" fill="black"/>
<path d="M23.5925 139.225H12.0775V150.775H23.5925V139.225Z" fill="black"/>
<path d="M35.1075 139.225H23.5925V150.775H35.1075V139.225Z" fill="black"/>
<path d="M81.1675 139.225H69.6525L69.6525 150.775H81.1675V139.225Z" fill="black"/>
<path d="M104.197 139.225H92.6825V150.775H104.197V139.225Z" fill="black"/>
<path d="M115.713 139.225H104.197V150.775H115.713V139.225Z" fill="black"/>
<path d="M173.287 139.225H161.772V150.775H173.287V139.225Z" fill="black"/>
<path d="M184.803 139.225H173.287V150.775H184.803V139.225Z" fill="black"/>
<path d="M207.833 139.225H196.318V150.775H207.833V139.225Z" fill="black"/>
<path d="M219.348 139.225H207.833V150.775H219.348V139.225Z" fill="black"/>
<path d="M230.863 139.225H219.348V150.775H230.863V139.225Z" fill="black"/>
<path d="M242.378 139.225H230.863V150.775H242.378V139.225Z" fill="black"/>
<path d="M253.893 139.225H242.378V150.775H253.893V139.225Z" fill="black"/>
<path d="M265.408 139.225H253.893V150.775H265.408V139.225Z" fill="black"/>
<path d="M288.438 139.225H276.923V150.775H288.438V139.225Z" fill="black"/>
<path d="M35.1075 150.775H23.5925V162.325H35.1075V150.775Z" fill="black"/>
<path d="M46.6225 150.775H35.1075V162.325H46.6225V150.775Z" fill="black"/>
<path d="M58.1375 150.775H46.6225V162.325H58.1375V150.775Z" fill="black"/>
<path d="M127.228 150.775H115.713V162.325H127.228V150.775Z" fill="black"/>
<path d="M138.742 150.775H127.228V162.325H138.742V150.775Z" fill="black"/>
<path d="M150.257 150.775H138.742V162.325H150.257V150.775Z" fill="black"/>
<path d="M161.772 150.775H150.257V162.325H161.772V150.775Z" fill="black"/>
<path d="M196.318 150.775H184.803V162.325H196.318V150.775Z" fill="black"/>
<path d="M242.378 150.775H230.863V162.325H242.378V150.775Z" fill="black"/>
<path d="M253.893 150.775H242.378V162.325H253.893V150.775Z" fill="black"/>
<path d="M265.408 150.775H253.893V162.325H265.408V150.775Z" fill="black"/>
<path d="M12.0775 162.325H0.5625V173.875H12.0775V162.325Z" fill="black"/>
<path d="M58.1375 162.325H46.6225V173.875H58.1375V162.325Z" fill="black"/>
<path d="M69.6525 162.325H58.1375V173.875H69.6525V162.325Z" fill="black"/>
<path d="M81.1675 162.325H69.6525V173.875H81.1675V162.325Z" fill="black"/>
<path d="M92.6825 162.325H81.1675V173.875H92.6825V162.325Z" fill="black"/>
<path d="M104.197 162.325H92.6825V173.875H104.197V162.325Z" fill="black"/>
<path d="M127.228 162.325H115.713V173.875H127.228V162.325Z" fill="black"/>
<path d="M138.742 162.325H127.228V173.875H138.742V162.325Z" fill="black"/>
<path d="M150.257 162.325H138.742V173.875H150.257V162.325Z" fill="black"/>
<path d="M161.772 162.325H150.257V173.875H161.772V162.325Z" fill="black"/>
<path d="M173.287 162.325H161.772V173.875H173.287V162.325Z" fill="black"/>
<path d="M184.803 162.325H173.287V173.875H184.803V162.325Z" fill="black"/>
<path d="M219.348 162.325H207.833V173.875H219.348V162.325Z" fill="black"/>
<path d="M288.438 162.325H276.923V173.875H288.438V162.325Z" fill="black"/>
<path d="M35.1075 173.875H23.5925V185.425H35.1075V173.875Z" fill="black"/>
<path d="M46.6225 173.875L35.1075 173.875V185.425H46.6225V173.875Z" fill="black"/>
<path d="M58.1375 173.875H46.6225V185.425H58.1375V173.875Z" fill="black"/>
<path d="M138.742 173.875H127.228V185.425H138.742V173.875Z" fill="black"/>
<path d="M150.257 173.875H138.742V185.425H150.257V173.875Z" fill="black"/>
<path d="M161.772 173.875H150.257V185.425H161.772V173.875Z" fill="black"/>
<path d="M184.803 173.875H173.287L173.288 185.425H184.803V173.875Z" fill="black"/>
<path d="M207.833 173.875L196.318 173.875V185.425H207.833V173.875Z" fill="black"/>
<path d="M230.863 173.875L219.348 173.875V185.425H230.863V173.875Z" fill="black"/>
<path d="M253.893 173.875H242.378V185.425H253.893V173.875Z" fill="black"/>
<path d="M265.408 173.875H253.893V185.425H265.408V173.875Z" fill="black"/>
<path d="M276.923 173.875L265.408 173.875V185.425H276.923V173.875Z" fill="black"/>
<path d="M12.0775 185.425H0.5625V196.975H12.0775V185.425Z" fill="black"/>
<path d="M23.5925 185.425H12.0775V196.975H23.5925V185.425Z" fill="black"/>
<path d="M35.1075 185.425H23.5925V196.975H35.1075V185.425Z" fill="black"/>
<path d="M46.6225 185.425H35.1075V196.975H46.6225V185.425Z" fill="black"/>
<path d="M58.1375 185.425H46.6225V196.975H58.1375V185.425Z" fill="black"/>
<path d="M81.1675 185.425H69.6525V196.975H81.1675V185.425Z" fill="black"/>
<path d="M92.6825 185.425H81.1675V196.975H92.6825V185.425Z" fill="black"/>
<path d="M115.713 185.425H104.197V196.975H115.713V185.425Z" fill="black"/>
<path d="M138.742 185.425H127.228V196.975H138.742V185.425Z" fill="black"/>
<path d="M150.257 185.425H138.742V196.975H150.257V185.425Z" fill="black"/>
<path d="M161.772 185.425H150.257V196.975H161.772V185.425Z" fill="black"/>
<path d="M173.288 185.425H161.772V196.975H173.287L173.288 185.425Z" fill="black"/>
<path d="M184.803 185.425H173.288L173.287 196.975H184.803V185.425Z" fill="black"/>
<path d="M196.318 185.425H184.803V196.975H196.318V185.425Z" fill="black"/>
<path d="M207.833 185.425H196.318V196.975H207.833V185.425Z" fill="black"/>
<path d="M219.348 185.425H207.833V196.975H219.348V185.425Z" fill="black"/>
<path d="M230.863 185.425H219.348V196.975H230.863V185.425Z" fill="black"/>
<path d="M242.378 185.425H230.863V196.975H242.378V185.425Z" fill="black"/>
<path d="M115.713 196.975H104.197V208.525H115.713V196.975Z" fill="black"/>
<path d="M127.228 196.975H115.713V208.525H127.228V196.975Z" fill="black"/>
<path d="M150.257 196.975H138.742V208.525H150.257V196.975Z" fill="black"/>
<path d="M161.772 196.975H150.257V208.525H161.772V196.975Z" fill="black"/>
<path d="M184.803 196.975H173.287L173.288 208.525H184.803V196.975Z" fill="black"/>
<path d="M196.318 196.975H184.803V208.525H196.318V196.975Z" fill="black"/>
<path d="M242.378 196.975H230.863V208.525H242.378V196.975Z" fill="black"/>
<path d="M253.893 196.975H242.378V208.525H253.893V196.975Z" fill="black"/>
<path d="M265.408 196.975H253.893V208.525H265.408V196.975Z" fill="black"/>
<path d="M276.923 196.975H265.408V208.525H276.923V196.975Z" fill="black"/>
<path d="M12.0775 208.525H0.5625V220.075H12.0775V208.525Z" fill="black"/>
<path d="M23.5925 208.525H12.0775V220.075H23.5925V208.525Z" fill="black"/>
<path d="M35.1075 208.525H23.5925V220.075H35.1075V208.525Z" fill="black"/>
<path d="M46.6225 208.525H35.1075V220.075H46.6225V208.525Z" fill="black"/>
<path d="M58.1375 208.525H46.6225V220.075H58.1375V208.525Z" fill="black"/>
<path d="M69.6525 208.525H58.1375V220.075H69.6525V208.525Z" fill="black"/>
<path d="M81.1675 208.525H69.6525V220.075H81.1675V208.525Z" fill="black"/>
<path d="M104.197 208.525H92.6825V220.075H104.197V208.525Z" fill="black"/>
<path d="M138.742 208.525H127.228V220.075H138.742V208.525Z" fill="black"/>
<path d="M150.257 208.525H138.742V220.075H150.257V208.525Z" fill="black"/>
<path d="M161.772 208.525H150.257V220.075H161.772V208.525Z" fill="black"/>
<path d="M184.803 208.525H173.288V220.075H184.803V208.525Z" fill="black"/>
<path d="M196.318 208.525H184.803V220.075H196.318V208.525Z" fill="black"/>
<path d="M219.348 208.525H207.833V220.075H219.348V208.525Z" fill="black"/>
<path d="M242.378 208.525H230.863V220.075H242.378V208.525Z" fill="black"/>
<path d="M253.893 208.525H242.378V220.075H253.893V208.525Z" fill="black"/>
<path d="M265.408 208.525H253.893V220.075H265.408V208.525Z" fill="black"/>
<path d="M12.0775 220.075H0.5625V231.625H12.0775V220.075Z" fill="black"/>
<path d="M81.1675 220.075H69.6525L69.6525 231.625H81.1675V220.075Z" fill="black"/>
<path d="M115.713 220.075H104.197V231.625H115.713V220.075Z" fill="black"/>
<path d="M127.228 220.075H115.713V231.625H127.228V220.075Z" fill="black"/>
<path d="M138.742 220.075H127.228V231.625H138.742V220.075Z" fill="black"/>
<path d="M161.772 220.075H150.257V231.625H161.772V220.075Z" fill="black"/>
<path d="M184.803 220.075H173.288V231.625H184.803V220.075Z" fill="black"/>
<path d="M196.318 220.075H184.803V231.625H196.318V220.075Z" fill="black"/>
<path d="M242.378 220.075H230.863V231.625H242.378V220.075Z" fill="black"/>
<path d="M288.438 220.075H276.923V231.625H288.438V220.075Z" fill="black"/>
<path d="M12.0775 231.625H0.5625V243.175H12.0775V231.625Z" fill="black"/>
<path d="M35.1075 231.625H23.5925V243.175H35.1075V231.625Z" fill="black"/>
<path d="M46.6225 231.625H35.1075V243.175H46.6225V231.625Z" fill="black"/>
<path d="M58.1375 231.625H46.6225V243.175H58.1375V231.625Z" fill="black"/>
<path d="M81.1675 231.625H69.6525V243.175H81.1675V231.625Z" fill="black"/>
<path d="M150.257 231.625H138.742V243.175H150.257V231.625Z" fill="black"/>
<path d="M161.772 231.625H150.257V243.175H161.772V231.625Z" fill="black"/>
<path d="M173.288 231.625H161.772V243.175H173.287L173.288 231.625Z" fill="black"/>
<path d="M184.803 231.625H173.288L173.287 243.175H184.803V231.625Z" fill="black"/>
<path d="M196.318 231.625H184.803V243.175H196.318V231.625Z" fill="black"/>
<path d="M207.833 231.625H196.318V243.175H207.833V231.625Z" fill="black"/>
<path d="M219.348 231.625H207.833V243.175H219.348V231.625Z" fill="black"/>
<path d="M230.863 231.625H219.348V243.175H230.863V231.625Z" fill="black"/>
<path d="M242.378 231.625H230.863V243.175H242.378V231.625Z" fill="black"/>
<path d="M253.893 231.625H242.378V243.175H253.893V231.625Z" fill="black"/>
<path d="M265.408 231.625H253.893V243.175H265.408V231.625Z" fill="black"/>
<path d="M276.923 231.625H265.408V243.175H276.923V231.625Z" fill="black"/>
<path d="M288.438 231.625H276.923V243.175H288.438V231.625Z" fill="black"/>
<path d="M12.0775 243.175H0.5625V254.725H12.0775V243.175Z" fill="black"/>
<path d="M35.1075 243.175H23.5925V254.725H35.1075V243.175Z" fill="black"/>
<path d="M46.6225 243.175H35.1075V254.725H46.6225V243.175Z" fill="black"/>
<path d="M58.1375 243.175H46.6225V254.725H58.1375V243.175Z" fill="black"/>
<path d="M81.1675 243.175H69.6525V254.725H81.1675V243.175Z" fill="black"/>
<path d="M104.197 243.175H92.6825V254.725H104.197V243.175Z" fill="black"/>
<path d="M138.742 243.175H127.228V254.725H138.742V243.175Z" fill="black"/>
<path d="M196.318 243.175H184.803V254.725H196.318V243.175Z" fill="black"/>
<path d="M242.378 243.175H230.863V254.725H242.378V243.175Z" fill="black"/>
<path d="M253.893 243.175H242.378V254.725H253.893V243.175Z" fill="black"/>
<path d="M288.438 243.175H276.923V254.725H288.438V243.175Z" fill="black"/>
<path d="M12.0775 254.725H0.5625V266.275H12.0775V254.725Z" fill="black"/>
<path d="M35.1075 254.725H23.5925V266.275H35.1075V254.725Z" fill="black"/>
<path d="M46.6225 254.725H35.1075V266.275H46.6225V254.725Z" fill="black"/>
<path d="M58.1375 254.725H46.6225V266.275H58.1375V254.725Z" fill="black"/>
<path d="M81.1675 254.725H69.6525V266.275H81.1675V254.725Z" fill="black"/>
<path d="M138.742 254.725H127.228V266.275H138.742V254.725Z" fill="black"/>
<path d="M150.257 254.725H138.742V266.275H150.257V254.725Z" fill="black"/>
<path d="M173.287 254.725H161.772V266.275H173.287V254.725Z" fill="black"/>
<path d="M196.318 254.725H184.803V266.275H196.318V254.725Z" fill="black"/>
<path d="M207.833 254.725H196.318V266.275H207.833V254.725Z" fill="black"/>
<path d="M219.348 254.725H207.833V266.275H219.348V254.725Z" fill="black"/>
<path d="M253.893 254.725H242.378V266.275H253.893V254.725Z" fill="black"/>
<path d="M265.408 254.725H253.893V266.275H265.408V254.725Z" fill="black"/>
<path d="M276.923 254.725H265.408V266.275H276.923V254.725Z" fill="black"/>
<path d="M288.438 254.725H276.923V266.275H288.438V254.725Z" fill="black"/>
<path d="M12.0775 266.275H0.5625V277.825H12.0775V266.275Z" fill="black"/>
<path d="M81.1675 266.275H69.6525V277.825H81.1675V266.275Z" fill="black"/>
<path d="M104.197 266.275H92.6825V277.825H104.197V266.275Z" fill="black"/>
<path d="M115.713 266.275H104.197V277.825H115.713V266.275Z" fill="black"/>
<path d="M150.257 266.275H138.742V277.825H150.257V266.275Z" fill="black"/>
<path d="M173.287 266.275H161.772V277.825H173.287V266.275Z" fill="black"/>
<path d="M196.318 266.275H184.803V277.825H196.318V266.275Z" fill="black"/>
<path d="M219.348 266.275H207.833V277.825H219.348V266.275Z" fill="black"/>
<path d="M230.863 266.275H219.348V277.825H230.863V266.275Z" fill="black"/>
<path d="M242.378 266.275H230.863V277.825H242.378V266.275Z" fill="black"/>
<path d="M253.893 266.275H242.378V277.825H253.893V266.275Z" fill="black"/>
<path d="M265.408 266.275H253.893V277.825H265.408V266.275Z" fill="black"/>
<path d="M288.438 266.275H276.923V277.825H288.438V266.275Z" fill="black"/>
<path d="M12.0775 277.825H0.5625V289.375H12.0775V277.825Z" fill="black"/>
<path d="M23.5925 277.825H12.0775V289.375H23.5925V277.825Z" fill="black"/>
<path d="M35.1075 277.825H23.5925V289.375H35.1075V277.825Z" fill="black"/>
<path d="M46.6225 277.825H35.1075V289.375H46.6225V277.825Z" fill="black"/>
<path d="M58.1375 277.825H46.6225V289.375H58.1375V277.825Z" fill="black"/>
<path d="M69.6525 277.825H58.1375V289.375H69.6525L69.6525 277.825Z" fill="black"/>
<path d="M81.1675 277.825H69.6525L69.6525 289.375H81.1675V277.825Z" fill="black"/>
<path d="M104.197 277.825H92.6825V289.375H104.197V277.825Z" fill="black"/>
<path d="M150.257 277.825H138.742V289.375H150.257V277.825Z" fill="black"/>
<path d="M161.772 277.825H150.257V289.375H161.772V277.825Z" fill="black"/>
<path d="M184.803 277.825H173.287L173.288 289.375H184.803V277.825Z" fill="black"/>
<path d="M196.318 277.825H184.803V289.375H196.318V277.825Z" fill="black"/>
<path d="M207.833 277.825H196.318V289.375H207.833V277.825Z" fill="black"/>
<path d="M219.348 277.825H207.833V289.375H219.348V277.825Z" fill="black"/>
<path d="M230.863 277.825H219.348V289.375H230.863V277.825Z" fill="black"/>
<path d="M253.893 277.825H242.378V289.375H253.893V277.825Z" fill="black"/>
<path d="M288.438 277.825H276.923V289.375H288.438V277.825Z" fill="black"/>
</svg>
