<svg xmlns="http://www.w3.org/2000/svg" width="161" height="161" viewBox="0 0 161 161" fill="none">
<circle cx="80.5" cy="80.5" r="80" fill="#18D458"/>
<path d="M81 45.5C74.0776 45.5 67.3107 47.5527 61.555 51.3986C55.7993 55.2444 51.3132 60.7107 48.6642 67.1061C46.0151 73.5015 45.322 80.5388 46.6725 87.3282C48.023 94.1175 51.3564 100.354 56.2512 105.249C61.1461 110.144 67.3825 113.477 74.1718 114.827C80.9611 116.178 87.9985 115.485 94.3939 112.836C100.789 110.187 106.256 105.701 110.101 99.945C113.947 94.1892 116 87.4223 116 80.5C116 71.2174 112.312 62.315 105.749 55.7513C99.1849 49.1875 90.2825 45.5 81 45.5ZM76 94.477L63.5 81.977L67.4765 78L76 86.523L94.525 68L98.5142 71.9648L76 94.477Z" fill="#fff"/>
</svg>