<svg xmlns="http://www.w3.org/2000/svg" width="161" height="160" viewBox="0 0 161 160" fill="none">
<circle cx="80.5" cy="80" r="80" fill="#9B9B9B"/>
<path d="M81 44.9997C76.3958 44.9711 71.8317 45.857 67.5724 47.6058C63.3131 49.3546 59.4434 51.9316 56.1876 55.1873C52.9319 58.4431 50.3549 62.3128 48.6061 66.5721C46.8573 70.8314 45.9715 75.3955 46 79.9997C45.9715 84.6039 46.8573 89.168 48.6061 93.4273C50.3549 97.6866 52.9319 101.556 56.1876 104.812C59.4434 108.068 63.3131 110.645 67.5724 112.394C71.8317 114.142 76.3958 115.028 81 115C85.6042 115.028 90.1683 114.142 94.4276 112.394C98.6869 110.645 102.557 108.068 105.812 104.812C109.068 101.556 111.645 97.6866 113.394 93.4273C115.143 89.168 116.029 84.6039 116 79.9997C116.029 75.3955 115.143 70.8314 113.394 66.5721C111.645 62.3128 109.068 58.4431 105.812 55.1873C102.557 51.9316 98.6869 49.3546 94.4276 47.6058C90.1683 45.857 85.6042 44.9711 81 44.9997ZM94.6122 97.4997L63.5 66.3889L67.3892 62.4997L98.5 93.6117L94.6122 97.4997Z" fill="white"/>
</svg>