<?xml version="1.0" standalone="no"?>
<!DOCTYPE svg PUBLIC "-//W3C//DTD SVG 20010904//EN"
 "http://www.w3.org/TR/2001/REC-SVG-20010904/DTD/svg10.dtd">
<svg version="1.0" xmlns="http://www.w3.org/2000/svg"
 width="944.000000pt" height="944.000000pt" viewBox="0 0 944.000000 944.000000"
 preserveAspectRatio="xMidYMid meet">
<metadata>
Created by potrace 1.14, written by Peter Selinger 2001-2017
</metadata>
<g transform="translate(0.000000,944.000000) scale(0.100000,-0.100000)"
fill="#000000" stroke="none">
<path d="M4488 9035 c-1 -1 -43 -6 -93 -9 -49 -4 -106 -9 -125 -12 -19 -2 -53
-6 -75 -9 -22 -2 -51 -6 -65 -9 -14 -3 -42 -7 -62 -10 -21 -3 -57 -10 -80 -15
-24 -6 -56 -12 -73 -15 -58 -11 -212 -51 -325 -84 -36 -11 -72 -21 -80 -23 -8
-2 -17 -6 -20 -9 -3 -3 -45 -19 -93 -34 -48 -16 -90 -33 -92 -37 -3 -4 -17
-10 -32 -14 -54 -13 -286 -125 -433 -208 -119 -68 -273 -166 -278 -179 -2 -4
-8 -8 -14 -8 -10 0 -34 -17 -178 -128 -268 -208 -568 -521 -753 -786 -63 -91
-155 -234 -178 -276 -13 -25 -27 -46 -31 -48 -5 -2 -8 -10 -8 -18 0 -8 -5 -14
-12 -14 -6 0 -9 -3 -5 -6 3 -3 -7 -27 -22 -52 -38 -66 -124 -245 -124 -259 0
-7 -3 -13 -7 -13 -3 0 -14 -24 -25 -52 -10 -29 -21 -57 -25 -63 -5 -5 -13 -26
-18 -45 -6 -19 -22 -65 -36 -101 -14 -37 -22 -70 -19 -73 4 -3 0 -6 -7 -6 -7
0 -11 -3 -7 -6 3 -3 -4 -31 -14 -62 -21 -59 -51 -173 -74 -277 -7 -33 -15 -69
-18 -80 -3 -11 -8 -40 -12 -65 -4 -25 -9 -54 -11 -65 -14 -75 -24 -160 -39
-330 -11 -119 -14 -355 -4 -355 5 0 10 19 10 43 1 23 3 53 5 67 1 14 5 43 7
65 6 50 16 113 22 145 3 14 7 39 10 55 7 42 17 90 30 148 3 12 8 35 11 51 2
16 7 32 9 36 2 3 6 18 9 33 2 14 17 66 31 114 15 48 27 89 26 90 -1 3 54 156
66 183 3 8 7 18 8 23 2 4 4 9 5 12 1 3 3 8 4 13 1 4 10 24 19 46 9 21 17 40
17 41 0 13 153 326 170 350 4 6 22 37 40 70 18 33 49 85 69 115 46 72 58 90
72 118 7 12 16 22 21 22 4 0 8 4 8 10 0 8 113 166 129 180 4 3 19 23 36 45 16
21 36 46 45 55 8 9 37 42 64 74 62 72 221 232 312 313 113 100 126 111 204
171 41 31 77 60 78 65 2 4 10 7 17 7 7 0 15 4 17 9 2 5 48 38 103 75 55 36
105 70 111 75 6 4 20 12 32 15 12 4 22 12 22 17 0 5 5 9 10 9 6 0 29 12 51 26
38 23 297 157 309 159 3 0 21 8 40 17 81 36 127 56 165 69 22 8 43 18 46 22 3
5 8 8 10 6 4 -2 66 15 99 28 40 16 269 83 315 92 22 5 85 19 140 31 55 12 111
23 125 25 14 1 25 4 25 5 0 2 7 3 95 14 30 4 69 8 85 10 215 28 703 27 880 0
17 -3 52 -7 79 -10 40 -4 235 -40 311 -58 62 -14 197 -49 254 -66 36 -11 69
-20 73 -20 4 -1 31 -10 60 -21 29 -11 80 -29 113 -41 33 -11 65 -24 70 -28 6
-4 21 -11 35 -15 80 -24 410 -189 510 -255 8 -6 24 -14 35 -19 11 -5 60 -37
109 -70 48 -34 92 -61 97 -61 5 0 9 -3 9 -7 0 -5 17 -19 38 -33 20 -14 42 -29
48 -35 7 -5 24 -19 40 -30 15 -11 32 -25 38 -30 6 -6 36 -30 66 -55 108 -87
332 -305 422 -410 96 -112 109 -128 183 -225 24 -33 49 -65 53 -70 23 -29 138
-204 181 -277 56 -95 182 -339 199 -383 6 -16 26 -66 45 -110 36 -84 48 -114
53 -130 1 -5 23 -73 49 -149 49 -148 74 -238 89 -326 1 -8 5 -24 9 -35 3 -11
9 -33 12 -50 3 -16 7 -43 10 -60 3 -16 10 -52 15 -80 8 -45 12 -77 25 -180 2
-16 6 -61 9 -99 10 -130 16 -79 12 105 -4 169 -10 266 -21 359 -2 19 -7 58
-10 85 -10 84 -40 249 -60 325 -6 26 -14 63 -19 92 -1 10 -5 21 -9 24 -4 4 -7
15 -7 24 0 21 -72 259 -97 320 -4 8 -7 17 -8 20 -1 3 -5 14 -10 25 -4 11 -18
46 -31 78 -40 102 -57 139 -134 292 -73 144 -215 386 -232 393 -4 2 -8 8 -8
14 0 10 -186 264 -217 296 -10 10 -38 42 -63 72 -124 152 -407 414 -595 553
-49 37 -94 70 -100 75 -5 4 -32 22 -60 39 -27 18 -54 36 -60 40 -64 50 -414
237 -545 291 -30 13 -71 30 -90 39 -19 8 -73 28 -120 45 -47 16 -92 32 -100
35 -8 4 -17 7 -20 7 -3 1 -11 5 -17 9 -7 5 -13 6 -13 3 0 -3 -25 4 -55 14 -30
10 -55 16 -55 13 0 -3 -6 -1 -12 5 -12 9 -33 15 -93 26 -11 2 -38 9 -60 14
-38 10 -66 17 -125 28 -14 2 -36 7 -50 10 -13 3 -40 7 -60 10 -19 2 -57 8 -85
13 -47 9 -96 15 -220 27 -57 6 -552 14 -557 9z"/>
<path d="M4667 7691 c-95 -208 -176 -440 -244 -701 -23 -91 -28 -111 -37 -155
-2 -11 -12 -56 -21 -100 -9 -44 -18 -96 -21 -115 -2 -19 -6 -46 -8 -60 -11
-69 -22 -167 -32 -280 -10 -113 -10 -411 0 -530 4 -52 9 -115 11 -140 2 -25 7
-63 10 -85 3 -22 8 -51 10 -65 2 -14 4 -25 5 -25 1 0 3 -18 5 -40 l4 -40 -27
35 c-86 111 -203 235 -301 320 -35 30 -69 60 -75 65 -6 6 -27 22 -46 35 -19
13 -37 27 -40 30 -10 13 -209 140 -218 140 -6 0 -12 4 -14 8 -10 24 -364 186
-510 233 -109 35 -113 34 -83 -37 8 -19 14 -37 15 -39 0 -3 0 -6 1 -7 0 -2 2
-10 4 -18 15 -73 157 -375 242 -515 71 -117 76 -126 90 -144 6 -9 40 -54 74
-101 35 -47 127 -149 205 -227 l143 -142 -117 -1 c-122 -1 -155 -3 -262 -15
-36 -5 -76 -9 -90 -11 -14 -1 -25 -3 -25 -4 0 -2 -24 -7 -74 -15 -23 -3 -54
-10 -67 -15 -13 -5 -24 -7 -24 -5 0 2 -11 0 -26 -5 -14 -6 -38 -12 -53 -15
-15 -3 -88 -25 -162 -50 -74 -25 -141 -47 -149 -49 -8 -3 -31 -12 -50 -22 -19
-10 -44 -20 -55 -21 -11 -2 -21 -8 -23 -13 -2 -6 -7 -10 -12 -10 -12 0 -140
-60 -140 -65 0 -10 254 -128 305 -142 6 -2 55 -18 110 -37 99 -35 250 -77 292
-81 11 -2 30 -6 41 -9 25 -8 57 -15 102 -21 19 -3 53 -8 75 -11 79 -11 143
-15 300 -16 164 -1 260 6 388 27 20 4 37 4 37 2 0 -3 -18 -25 -41 -49 -140
-148 -281 -428 -333 -658 -14 -62 -13 -86 3 -76 4 3 19 7 34 10 15 4 38 8 51
11 56 12 207 66 286 102 47 22 90 41 95 43 6 2 15 8 20 12 6 5 42 30 81 56 87
57 146 105 192 155 20 20 37 35 40 32 3 -3 6 -19 7 -37 14 -183 17 -228 20
-258 2 -19 7 -73 10 -120 3 -47 7 -105 9 -130 2 -25 7 -81 10 -125 12 -157 16
-211 21 -270 3 -33 8 -91 10 -130 3 -38 8 -95 10 -125 3 -30 8 -89 11 -130 10
-143 14 -195 18 -235 2 -22 5 -53 5 -69 2 -54 9 -22 16 69 4 50 9 104 11 120
5 32 10 85 18 199 3 38 8 90 11 115 5 48 11 104 20 206 3 33 7 80 10 105 3 25
7 79 10 120 3 41 8 93 11 115 3 22 7 60 9 85 4 54 14 156 21 225 3 28 7 75 9
105 7 90 16 164 20 168 2 2 18 -12 34 -31 33 -37 173 -150 212 -171 13 -7 47
-26 74 -43 46 -27 80 -43 176 -86 47 -21 179 -63 257 -81 l63 -14 -6 36 c-27
173 -149 451 -268 610 -38 50 -72 92 -75 92 -4 0 -15 12 -25 25 l-18 25 38 -5
c68 -10 138 -18 161 -18 12 -1 22 -3 22 -6 0 -14 420 -2 520 14 19 4 49 8 65
10 32 5 45 8 115 24 25 5 59 12 77 15 140 25 564 184 638 239 18 14 13 18 -89
66 -59 28 -110 51 -113 51 -3 0 -19 6 -36 14 -46 20 -126 48 -129 45 -2 -1
-13 3 -25 10 -22 11 -163 54 -214 65 -13 3 -51 12 -84 20 -33 8 -78 17 -100
20 -22 4 -51 8 -65 10 -14 3 -54 7 -90 11 -36 4 -76 9 -90 11 -14 2 -83 5
-154 5 l-128 0 58 52 c67 61 123 116 179 178 67 74 135 156 135 163 0 7 12 23
43 57 9 10 14 19 10 19 -5 0 -3 4 2 8 41 28 243 404 286 532 7 19 15 40 19 45
8 10 51 137 54 158 1 7 5 17 9 24 14 23 -10 21 -94 -6 -178 -58 -333 -128
-497 -222 -91 -53 -233 -143 -267 -171 -5 -4 -41 -33 -80 -64 -112 -90 -303
-287 -362 -376 -14 -21 -27 -38 -28 -38 -2 0 0 17 3 38 3 20 6 47 6 60 1 12 3
22 6 22 3 0 6 12 6 28 1 15 4 50 7 77 13 103 18 174 22 308 3 76 7 142 10 148
4 5 3 9 -2 9 -4 0 -8 39 -9 88 -1 87 -18 327 -23 327 -1 0 -4 23 -7 50 -2 28
-7 64 -10 80 -2 17 -6 41 -8 55 -2 14 -6 36 -10 50 -3 14 -8 36 -10 50 -3 14
-8 39 -11 55 -8 46 -26 128 -31 143 -2 7 -4 14 -5 17 0 2 -10 37 -20 77 -11
40 -21 81 -24 90 -2 9 -27 88 -57 175 -29 87 -51 161 -50 166 1 4 -2 7 -7 7
-5 0 -12 12 -16 27 -3 15 -15 46 -26 70 -10 23 -19 44 -19 47 0 8 -70 156 -74
156 -2 0 -19 -35 -39 -79z"/>
<path d="M5 5299 c3 -217 7 -423 9 -459 8 -126 18 -255 22 -285 2 -16 6 -52 9
-80 14 -129 31 -251 39 -291 2 -12 7 -37 10 -55 13 -82 52 -258 72 -327 9 -30
17 -60 18 -66 6 -27 51 -165 66 -201 29 -67 33 -80 32 -87 -1 -5 3 -8 9 -8 5
0 8 -4 4 -9 -3 -5 -1 -12 5 -16 6 -4 8 -11 5 -16 -4 -5 -3 -9 2 -9 4 0 17 -21
27 -48 10 -26 26 -55 34 -64 8 -10 12 -18 8 -18 -3 0 6 -19 21 -42 15 -24 42
-68 62 -98 111 -175 272 -348 436 -470 33 -25 62 -48 63 -52 2 -5 8 -8 14 -8
6 0 26 -11 44 -25 18 -14 36 -25 40 -25 4 0 15 -6 23 -14 24 -21 215 -120 311
-161 47 -20 94 -40 105 -45 19 -8 109 -42 185 -69 96 -34 281 -90 316 -96 12
-1 31 -8 43 -14 11 -7 21 -10 21 -7 0 3 15 0 33 -6 17 -5 68 -18 112 -29 129
-31 153 -37 205 -45 19 -3 43 -7 52 -10 10 -3 30 -7 45 -10 16 -3 36 -7 45
-10 9 -3 25 -6 35 -8 10 -2 61 -14 113 -27 52 -13 97 -23 100 -24 3 -1 14 -4
25 -7 11 -4 61 -19 110 -34 103 -31 239 -82 323 -121 31 -15 59 -27 62 -28 3
0 21 -9 40 -20 19 -11 38 -18 43 -17 4 1 7 -3 7 -8 0 -6 5 -10 12 -10 11 0 55
-26 167 -98 99 -64 244 -188 341 -290 52 -56 100 -107 105 -114 6 -7 26 -33
45 -58 19 -24 41 -51 48 -58 20 -22 217 -322 246 -377 15 -27 45 -79 67 -115
21 -36 48 -85 60 -108 36 -76 34 -36 -3 55 -42 103 -51 126 -52 133 -2 11 -39
107 -53 138 -8 18 -25 61 -38 95 -39 105 -76 200 -92 237 -8 19 -19 45 -24 58
-5 12 -13 32 -18 45 -5 12 -18 43 -30 69 -12 26 -21 50 -21 52 0 2 -10 25 -22
52 -12 27 -23 51 -23 54 -3 10 -19 47 -55 125 -20 44 -45 100 -56 125 -109
255 -470 898 -576 1025 -5 5 -38 51 -73 100 -36 50 -70 97 -77 105 -7 8 -35
41 -61 74 -126 156 -434 475 -572 591 -33 28 -70 60 -83 73 -12 12 -26 22 -30
22 -4 0 -26 18 -50 40 -24 22 -45 40 -48 40 -5 0 -7 1 -64 50 -19 16 -38 30
-42 30 -4 0 -13 6 -20 13 -60 57 -506 353 -648 428 -25 13 -47 26 -50 29 -3 3
-16 11 -29 18 -13 8 -40 23 -60 34 -20 12 -56 31 -80 44 -24 13 -50 29 -57 35
-8 6 -14 8 -14 5 0 -4 -12 1 -27 11 -16 10 -59 34 -98 53 -38 19 -71 38 -73
43 -2 4 -8 7 -13 7 -4 0 -86 38 -181 84 -193 94 -187 94 -182 -3 3 -68 22
-146 45 -192 10 -20 16 -39 13 -41 -2 -3 2 -11 11 -18 8 -7 15 -19 15 -26 0
-8 5 -14 10 -14 6 0 10 -5 10 -12 0 -15 105 -159 171 -233 55 -62 349 -356
435 -435 67 -62 224 -202 252 -226 26 -22 29 -37 5 -30 -10 3 -29 7 -43 10
-162 32 -345 107 -509 209 -58 36 -137 92 -151 107 -3 3 -23 18 -45 35 -38 28
-216 204 -278 275 -51 58 -166 216 -222 307 -30 48 -58 93 -62 99 -42 55 -161
309 -268 569 -28 66 -126 377 -155 489 -17 66 -33 122 -35 125 -3 2 -3 -173 0
-390z"/>
<path d="M9416 5682 c-4 -7 -35 -120 -41 -155 -2 -9 -7 -22 -10 -27 -4 -6 -8
-22 -11 -36 -6 -30 -79 -264 -101 -319 -8 -22 -19 -49 -23 -60 -38 -103 -75
-192 -82 -199 -4 -6 -8 -18 -8 -28 0 -10 -5 -18 -12 -18 -6 0 -9 -3 -5 -6 7
-7 -130 -276 -193 -379 -55 -91 -143 -218 -189 -275 -20 -25 -43 -53 -51 -64
-26 -32 -113 -128 -151 -165 -260 -257 -588 -438 -879 -486 -35 -5 -35 -5 32
57 37 35 98 90 135 123 547 489 772 782 790 1025 8 110 5 114 -54 85 -26 -13
-120 -59 -208 -101 -88 -42 -163 -82 -167 -88 -4 -6 -8 -8 -8 -4 0 7 -160 -74
-283 -144 -38 -21 -70 -38 -72 -38 -2 0 -59 -32 -127 -71 -67 -39 -136 -79
-153 -89 -68 -39 -142 -85 -172 -108 -18 -13 -33 -20 -33 -16 0 5 -4 4 -8 -1
-4 -6 -54 -42 -112 -80 -58 -39 -107 -72 -110 -75 -3 -3 -45 -34 -95 -70 -49
-35 -95 -69 -101 -75 -7 -5 -24 -19 -40 -30 -15 -11 -32 -24 -38 -30 -6 -5
-34 -28 -61 -50 -233 -186 -555 -516 -710 -729 -11 -15 -28 -37 -38 -49 -10
-12 -26 -34 -35 -49 -9 -16 -20 -28 -24 -28 -4 0 -8 -4 -8 -10 0 -8 -64 -107
-89 -136 -7 -9 -77 -121 -106 -172 -6 -9 -30 -50 -53 -90 -88 -149 -332 -649
-332 -681 0 -6 -4 -11 -8 -11 -5 0 -9 -6 -9 -12 0 -7 -9 -33 -20 -58 -12 -25
-40 -92 -63 -150 -23 -58 -49 -123 -58 -145 -9 -21 -17 -42 -17 -45 -1 -3 -16
-43 -34 -90 -53 -135 -257 -712 -266 -750 -2 -8 -7 -24 -11 -35 -14 -39 5 -9
52 80 26 50 59 108 73 130 14 22 26 42 26 45 1 19 212 343 226 348 5 2 9 8 9
14 0 18 154 202 250 298 127 127 208 195 320 266 25 16 47 31 50 34 19 20 298
160 317 160 7 0 13 5 13 12 0 6 3 8 7 5 3 -4 12 -2 20 4 7 6 13 8 13 4 0 -4 6
-3 13 2 36 30 535 174 650 188 21 3 42 7 46 9 3 2 24 7 46 10 22 4 87 18 145
32 58 14 112 27 120 29 45 9 222 61 335 97 72 23 132 42 135 43 3 0 10 3 15 6
6 4 28 12 50 19 128 40 480 207 533 252 9 8 24 17 32 20 13 5 134 91 201 145
51 40 238 232 281 288 95 125 213 329 258 445 11 30 27 69 34 85 17 37 39 102
61 180 10 33 22 71 26 85 9 26 40 153 44 180 1 8 5 22 8 30 4 8 8 33 11 55 2
22 7 47 10 55 5 14 8 31 21 125 3 19 8 52 11 73 8 48 11 73 18 152 4 36 9 76
11 90 4 24 14 152 20 255 16 257 23 795 11 814 -4 6 -4 11 1 11 4 0 8 16 8 35
0 37 -1 40 -9 27z"/>
</g>
</svg>
